<svg xmlns="http://www.w3.org/2000/svg" xmlns:xlink="http://www.w3.org/1999/xlink" xmlns:lucid="lucid" width="1160" height="560"><g transform="translate(20 20)" lucid:page-tab-id="0_0"><path d="M0 0h240v60H0z" stroke="#000" stroke-opacity="0" stroke-width="2" fill="#fff" fill-opacity="0"/><use xlink:href="#a" transform="matrix(1,0,0,1,5,5) translate(2.4749999999999943 28.6)"/><use xlink:href="#b" transform="matrix(1,0,0,1,5,5) translate(38.77499999999999 28.6)"/><use xlink:href="#c" transform="matrix(1,0,0,1,5,5) translate(64.625 28.6)"/><use xlink:href="#d" transform="matrix(1,0,0,1,5,5) translate(129.625 28.6)"/><use xlink:href="#e" transform="matrix(1,0,0,1,5,5) translate(157.575 28.6)"/><path d="M32 80h160v120H32z" stroke="#000" stroke-width="2" fill="#fff"/><use xlink:href="#f" transform="matrix(1,0,0,1,37,85) translate(51.05 26.19999999999999)"/><use xlink:href="#g" transform="matrix(1,0,0,1,37,85) translate(32.55 47.79999999999999)"/><use xlink:href="#h" transform="matrix(1,0,0,1,37,85) translate(86.45 47.79999999999999)"/><use xlink:href="#i" transform="matrix(1,0,0,1,37,85) translate(2.549999999999997 69.39999999999999)"/><use xlink:href="#j" transform="matrix(1,0,0,1,37,85) translate(111.5 69.39999999999999)"/><use xlink:href="#k" transform="matrix(1,0,0,1,37,85) translate(39.599999999999994 91)"/><use xlink:href="#l" transform="matrix(1,0,0,1,37,85) translate(64.6 91)"/><path d="M32 240h160v120H32z" stroke="#000" stroke-width="2" fill="#fff"/><use xlink:href="#m" transform="matrix(1,0,0,1,37,245) translate(29.049999999999997 58.6)"/><use xlink:href="#n" transform="matrix(1,0,0,1,37,245) translate(89.94999999999999 58.6)"/><path d="M240 0h240v60H240z" stroke="#000" stroke-opacity="0" stroke-width="2" fill="#fff" fill-opacity="0"/><use xlink:href="#a" transform="matrix(1,0,0,1,245,5) translate(12.049999999999997 17.799999999999997)"/><use xlink:href="#o" transform="matrix(1,0,0,1,245,5) translate(48.349999999999994 17.799999999999997)"/><use xlink:href="#p" transform="matrix(1,0,0,1,245,5) translate(67.3 17.799999999999997)"/><use xlink:href="#d" transform="matrix(1,0,0,1,245,5) translate(117.25 17.799999999999997)"/><use xlink:href="#o" transform="matrix(1,0,0,1,245,5) translate(145.2 17.799999999999997)"/><use xlink:href="#q" transform="matrix(1,0,0,1,245,5) translate(164.14999999999998 17.799999999999997)"/><use xlink:href="#r" transform="matrix(1,0,0,1,245,5) translate(197.10000000000002 17.799999999999997)"/><use xlink:href="#s" transform="matrix(1,0,0,1,245,5) translate(92.5 39.4)"/><path d="M280 80h160v120H280z" stroke="#000" stroke-width="2" fill="#fff"/><use xlink:href="#f" transform="matrix(1,0,0,1,285,85) translate(51.05 26.19999999999999)"/><use xlink:href="#g" transform="matrix(1,0,0,1,285,85) translate(32.55 47.79999999999999)"/><use xlink:href="#h" transform="matrix(1,0,0,1,285,85) translate(86.45 47.79999999999999)"/><use xlink:href="#i" transform="matrix(1,0,0,1,285,85) translate(2.549999999999997 69.39999999999999)"/><use xlink:href="#j" transform="matrix(1,0,0,1,285,85) translate(111.5 69.39999999999999)"/><use xlink:href="#k" transform="matrix(1,0,0,1,285,85) translate(39.599999999999994 91)"/><use xlink:href="#l" transform="matrix(1,0,0,1,285,85) translate(64.6 91)"/><path d="M280 240h160v120H280z" stroke="#000" stroke-width="2" fill="#fff"/><use xlink:href="#t" transform="matrix(1,0,0,1,285,245) translate(5.099999999999994 47.8)"/><use xlink:href="#u" transform="matrix(1,0,0,1,285,245) translate(51.55 69.4)"/><path d="M280 400h160v120H280z" stroke="#000" stroke-width="2" fill="#fff"/><use xlink:href="#v" transform="matrix(1,0,0,1,285,405) translate(13.574999999999996 47.8)"/><use xlink:href="#w" transform="matrix(1,0,0,1,285,405) translate(94.475 47.8)"/><use xlink:href="#x" transform="matrix(1,0,0,1,285,405) translate(40.5 69.4)"/><use xlink:href="#y" transform="matrix(1,0,0,1,285,405) translate(74.5 69.4)"/><path d="M360 362v18.5" stroke="#000" stroke-width="2" fill="none"/><path d="M361 362.03h-2V361h2z"/><path d="M360 395.76l-4.64-14.26h9.28z" stroke="#000" stroke-width="2"/><path d="M280 340h240v60H280z" stroke="#000" stroke-opacity="0" stroke-width="2" fill="#fff" fill-opacity="0"/><use xlink:href="#z" transform="matrix(1,0,0,1,285,345) translate(91.525 28.6)"/><path d="M194 300h42v160h24.5" stroke="#000" stroke-width="2" fill="none"/><path d="M194.03 301H193v-2h1.03z"/><path d="M275.76 460l-14.26 4.64v-9.28z" stroke="#000" stroke-width="2"/><path d="M60 380h240v60H60z" stroke="#000" stroke-opacity="0" stroke-width="2" fill="#fff" fill-opacity="0"/><g><use xlink:href="#A" transform="matrix(1,0,0,1,65,385) translate(77.55 28.6)"/></g><path d="M480 0h240v60H480z" stroke="#000" stroke-opacity="0" stroke-width="2" fill="#fff" fill-opacity="0"/><g><use xlink:href="#a" transform="matrix(1,0,0,1,485,5) translate(6.449999999999989 28.6)"/><use xlink:href="#k" transform="matrix(1,0,0,1,485,5) translate(42.749999999999986 28.6)"/><use xlink:href="#B" transform="matrix(1,0,0,1,485,5) translate(67.74999999999999 28.6)"/><use xlink:href="#C" transform="matrix(1,0,0,1,485,5) translate(122.64999999999999 28.6)"/><use xlink:href="#D" transform="matrix(1,0,0,1,485,5) translate(143.6 28.6)"/><use xlink:href="#E" transform="matrix(1,0,0,1,485,5) translate(183.55 28.6)"/></g><path d="M520 80h160v120H520z" stroke="#000" stroke-width="2" fill="#fff"/><g><use xlink:href="#F" transform="matrix(1,0,0,1,525,85) translate(21.1 37)"/><use xlink:href="#G" transform="matrix(1,0,0,1,525,85) translate(60 37)"/><use xlink:href="#o" transform="matrix(1,0,0,1,525,85) translate(80 37)"/><use xlink:href="#H" transform="matrix(1,0,0,1,525,85) translate(98.94999999999999 37)"/><use xlink:href="#I" transform="matrix(1,0,0,1,525,85) translate(7.125 58.6)"/><use xlink:href="#J" transform="matrix(1,0,0,1,525,85) translate(64.97500000000001 58.6)"/><use xlink:href="#K" transform="matrix(1,0,0,1,525,85) translate(103.92500000000001 58.6)"/><use xlink:href="#L" transform="matrix(1,0,0,1,525,85) translate(122.87500000000001 58.6)"/><use xlink:href="#M" transform="matrix(1,0,0,1,525,85) translate(16 80.20000000000002)"/><use xlink:href="#N" transform="matrix(1,0,0,1,525,85) translate(95 80.20000000000002)"/></g><path d="M520 400h160v120H520z" stroke="#000" stroke-width="2" fill="#fff"/><g><use xlink:href="#O" transform="matrix(1,0,0,1,525,405) translate(0.625 47.8)"/><use xlink:href="#P" transform="matrix(1,0,0,1,525,405) translate(67.525 47.8)"/><use xlink:href="#Q" transform="matrix(1,0,0,1,525,405) translate(102.47500000000001 47.8)"/><use xlink:href="#R" transform="matrix(1,0,0,1,525,405) translate(61 69.4)"/></g><path d="M442 460h58.5" stroke="#000" stroke-width="2" fill="none"/><path d="M442.03 461H441v-2h1.03z"/><path d="M515.76 460l-14.26 4.64v-9.28z" stroke="#000" stroke-width="2"/><path d="M520 240h160v120H520z" stroke="#000" stroke-width="2" fill="#fff"/><g><use xlink:href="#S" transform="matrix(1,0,0,1,525,245) translate(4.099999999999994 58.6)"/><use xlink:href="#T" transform="matrix(1,0,0,1,525,245) translate(81.9 58.6)"/><use xlink:href="#U" transform="matrix(1,0,0,1,525,245) translate(106.9 58.6)"/></g><path d="M442 300h58.5" stroke="#000" stroke-width="2" fill="none"/><path d="M442.03 301H441v-2h1.03z"/><path d="M515.76 300l-14.26 4.64v-9.28z" stroke="#000" stroke-width="2"/><path d="M600 398v-18.5" stroke="#000" stroke-width="2" fill="none"/><path d="M601 399h-2v-1.03h2z"/><path d="M600 364.24l4.64 14.26h-9.28z" stroke="#000" stroke-width="2"/><path d="M960 240h160v120H960z" stroke="#000" stroke-width="2" fill="#fff"/><g><use xlink:href="#V" transform="matrix(1,0,0,1,965,245) translate(54.025 47.8)"/><use xlink:href="#W" transform="matrix(1,0,0,1,965,245) translate(3.575000000000003 69.4)"/><use xlink:href="#X" transform="matrix(1,0,0,1,965,245) translate(127.47500000000001 69.4)"/></g><path d="M682 300h258.5" stroke="#000" stroke-width="2" fill="none"/><path d="M682.03 301H681v-2h1.03z"/><path d="M955.76 300l-14.26 4.64v-9.28z" stroke="#000" stroke-width="2"/><path d="M700 240h240v60H700z" stroke="#000" stroke-opacity="0" stroke-width="2" fill="#fff" fill-opacity="0"/><g><use xlink:href="#Y" transform="matrix(1,0,0,1,705,245) translate(21.174999999999983 28.6)"/><use xlink:href="#k" transform="matrix(1,0,0,1,705,245) translate(51.124999999999986 28.6)"/><use xlink:href="#Z" transform="matrix(1,0,0,1,705,245) translate(76.12499999999999 28.6)"/><use xlink:href="#aa" transform="matrix(1,0,0,1,705,245) translate(170.875 28.6)"/></g><defs><path d="M266 0h-40l-56-210L115 0H75L2-248h35L96-30l15-64 43-154h32l59 218 59-218h35" id="ab"/><path d="M141-36C126-15 110 5 73 4 37 3 15-17 15-53c-1-64 63-63 125-63 3-35-9-54-41-54-24 1-41 7-42 31l-33-3c5-37 33-52 76-52 45 0 72 20 72 64v82c-1 20 7 32 28 27v20c-31 9-61-2-59-35zM48-53c0 20 12 33 32 33 41-3 63-29 60-74-43 2-92-5-92 41" id="ac"/><path d="M59-47c-2 24 18 29 38 22v24C64 9 27 4 27-40v-127H5v-23h24l9-43h21v43h35v23H59v120" id="ad"/><g id="a"><use transform="matrix(0.05,0,0,0.05,0,0)" xlink:href="#ab"/><use transform="matrix(0.05,0,0,0.05,16.3,0)" xlink:href="#ac"/><use transform="matrix(0.05,0,0,0.05,26.3,0)" xlink:href="#ad"/></g><path d="M206 0h-36l-40-164L89 0H53L-1-190h32L70-26l43-164h34l41 164 42-164h31" id="ae"/><path d="M24-231v-30h32v30H24zM24 0v-190h32V0H24" id="af"/><path d="M24-231v-30h32v30H24zM-9 49c24 4 33-6 33-30v-209h32V24c2 40-23 58-65 49V49" id="ag"/><g id="b"><use transform="matrix(0.05,0,0,0.05,0,0)" xlink:href="#ae"/><use transform="matrix(0.05,0,0,0.05,12.950000000000001,0)" xlink:href="#af"/><use transform="matrix(0.05,0,0,0.05,16.900000000000002,0)" xlink:href="#ag"/></g><path d="M106-169C34-169 62-67 57 0H25v-261h32l-1 103c12-21 28-36 61-36 89 0 53 116 60 194h-32v-121c2-32-8-49-39-48" id="ah"/><path d="M100-194c63 0 86 42 84 106H49c0 40 14 67 53 68 26 1 43-12 49-29l28 8c-11 28-37 45-77 45C44 4 14-33 15-96c1-61 26-98 85-98zm52 81c6-60-76-77-97-28-3 7-6 17-6 28h103" id="ai"/><path d="M115-194c53 0 69 39 70 98 0 66-23 100-70 100C84 3 66-7 56-30L54 0H23l1-261h32v101c10-23 28-34 59-34zm-8 174c40 0 45-34 45-75 0-40-5-75-45-74-42 0-51 32-51 76 0 43 10 73 51 73" id="aj"/><path d="M117-194c89-4 53 116 60 194h-32v-121c0-31-8-49-39-48C34-167 62-67 57 0H25l-1-190h30c1 10-1 24 2 32 11-22 29-35 61-36" id="ak"/><g id="c"><use transform="matrix(0.05,0,0,0.05,0,0)" xlink:href="#ah"/><use transform="matrix(0.05,0,0,0.05,10,0)" xlink:href="#ai"/><use transform="matrix(0.05,0,0,0.05,20,0)" xlink:href="#aj"/><use transform="matrix(0.05,0,0,0.05,30,0)" xlink:href="#aj"/><use transform="matrix(0.05,0,0,0.05,40,0)" xlink:href="#ai"/><use transform="matrix(0.05,0,0,0.05,50,0)" xlink:href="#ak"/></g><path d="M24 0v-261h32V0H24" id="al"/><path d="M135-143c-3-34-86-38-87 0 15 53 115 12 119 90S17 21 10-45l28-5c4 36 97 45 98 0-10-56-113-15-118-90-4-57 82-63 122-42 12 7 21 19 24 35" id="am"/><g id="d"><use transform="matrix(0.05,0,0,0.05,0,0)" xlink:href="#ac"/><use transform="matrix(0.05,0,0,0.05,10,0)" xlink:href="#al"/><use transform="matrix(0.05,0,0,0.05,13.949999999999998,0)" xlink:href="#am"/></g><path d="M115-194c55 1 70 41 70 98S169 2 115 4C84 4 66-9 55-30l1 105H24l-1-265h31l2 30c10-21 28-34 59-34zm-8 174c40 0 45-34 45-75s-6-73-45-74c-42 0-51 32-51 76 0 43 10 73 51 73" id="an"/><path d="M114-163C36-179 61-72 57 0H25l-1-190h30c1 12-1 29 2 39 6-27 23-49 58-41v29" id="ao"/><path d="M100-194c62-1 85 37 85 99 1 63-27 99-86 99S16-35 15-95c0-66 28-99 85-99zM99-20c44 1 53-31 53-75 0-43-8-75-51-75s-53 32-53 75 10 74 51 75" id="ap"/><path d="M33-154v-36h34v36H33zM33 0v-36h34V0H33" id="aq"/><g id="e"><use transform="matrix(0.05,0,0,0.05,0,0)" xlink:href="#an"/><use transform="matrix(0.05,0,0,0.05,10,0)" xlink:href="#ai"/><use transform="matrix(0.05,0,0,0.05,20,0)" xlink:href="#ao"/><use transform="matrix(0.05,0,0,0.05,25.950000000000003,0)" xlink:href="#am"/><use transform="matrix(0.05,0,0,0.05,34.95,0)" xlink:href="#ap"/><use transform="matrix(0.05,0,0,0.05,44.95,0)" xlink:href="#ap"/><use transform="matrix(0.05,0,0,0.05,54.95,0)" xlink:href="#ak"/><use transform="matrix(0.05,0,0,0.05,64.95,0)" xlink:href="#aq"/></g><path d="M190 0L58-211 59 0H30v-248h39L202-35l-2-213h31V0h-41" id="ar"/><path d="M210-169c-67 3-38 105-44 169h-31v-121c0-29-5-50-35-48C34-165 62-65 56 0H25l-1-190h30c1 10-1 24 2 32 10-44 99-50 107 0 11-21 27-35 58-36 85-2 47 119 55 194h-31v-121c0-29-5-49-35-48" id="as"/><g id="f"><use transform="matrix(0.05,0,0,0.05,0,0)" xlink:href="#ar"/><use transform="matrix(0.05,0,0,0.05,12.950000000000001,0)" xlink:href="#ac"/><use transform="matrix(0.05,0,0,0.05,22.950000000000003,0)" xlink:href="#ac"/><use transform="matrix(0.05,0,0,0.05,32.95,0)" xlink:href="#as"/></g><path d="M30-248c87 1 191-15 191 75 0 78-77 80-158 76V0H30v-248zm33 125c57 0 124 11 124-50 0-59-68-47-124-48v98" id="at"/><path d="M84 4C-5 8 30-112 23-190h32v120c0 31 7 50 39 49 72-2 45-101 50-169h31l1 190h-30c-1-10 1-25-2-33-11 22-28 36-60 37" id="au"/><path d="M96-169c-40 0-48 33-48 73s9 75 48 75c24 0 41-14 43-38l32 2c-6 37-31 61-74 61-59 0-76-41-82-99-10-93 101-131 147-64 4 7 5 14 7 22l-32 3c-4-21-16-35-41-35" id="av"/><g id="g"><use transform="matrix(0.05,0,0,0.05,0,0)" xlink:href="#at"/><use transform="matrix(0.05,0,0,0.05,12,0)" xlink:href="#au"/><use transform="matrix(0.05,0,0,0.05,22,0)" xlink:href="#aj"/><use transform="matrix(0.05,0,0,0.05,32,0)" xlink:href="#al"/><use transform="matrix(0.05,0,0,0.05,35.95,0)" xlink:href="#af"/><use transform="matrix(0.05,0,0,0.05,39.900000000000006,0)" xlink:href="#av"/></g><path d="M194 0L95-120 63-95V0H30v-248h33v124l119-124h40L117-140 236 0h-42" id="aw"/><path d="M179-190L93 31C79 59 56 82 12 73V49c39 6 53-20 64-50L1-190h34L92-34l54-156h33" id="ax"/><g id="h"><use transform="matrix(0.05,0,0,0.05,0,0)" xlink:href="#aw"/><use transform="matrix(0.05,0,0,0.05,12,0)" xlink:href="#ai"/><use transform="matrix(0.05,0,0,0.05,22,0)" xlink:href="#ax"/></g><path d="M140-251c81 0 123 46 123 126C263-46 219 4 140 4 59 4 17-45 17-125s42-126 123-126zm0 227c63 0 89-41 89-101s-29-99-89-99c-61 0-89 39-89 99S79-25 140-24" id="ay"/><path d="M85-194c31 0 48 13 60 33l-1-100h32l1 261h-30c-2-10 0-23-3-31C134-8 116 4 85 4 32 4 16-35 15-94c0-66 23-100 70-100zm9 24c-40 0-46 34-46 75 0 40 6 74 45 74 42 0 51-32 51-76 0-42-9-74-50-73" id="az"/><path d="M143 0L79-87 56-68V0H24v-261h32v163l83-92h37l-77 82L181 0h-38" id="aA"/><g id="i"><use transform="matrix(0.05,0,0,0.05,0,0)" xlink:href="#ay"/><use transform="matrix(0.05,0,0,0.05,14,0)" xlink:href="#ak"/><use transform="matrix(0.05,0,0,0.05,24,0)" xlink:href="#az"/><use transform="matrix(0.05,0,0,0.05,34,0)" xlink:href="#ai"/><use transform="matrix(0.05,0,0,0.05,44,0)" xlink:href="#ao"/><use transform="matrix(0.05,0,0,0.05,49.95,0)" xlink:href="#ad"/><use transform="matrix(0.05,0,0,0.05,54.95,0)" xlink:href="#ai"/><use transform="matrix(0.05,0,0,0.05,64.95,0)" xlink:href="#aA"/><use transform="matrix(0.05,0,0,0.05,73.95,0)" xlink:href="#ai"/><use transform="matrix(0.05,0,0,0.05,83.95,0)" xlink:href="#ak"/><use transform="matrix(0.05,0,0,0.05,93.95,0)" xlink:href="#az"/></g><g id="j"><use transform="matrix(0.05,0,0,0.05,0,0)" xlink:href="#az"/><use transform="matrix(0.05,0,0,0.05,10,0)" xlink:href="#ap"/><use transform="matrix(0.05,0,0,0.05,20,0)" xlink:href="#ap"/><use transform="matrix(0.05,0,0,0.05,30,0)" xlink:href="#ao"/></g><g id="k"><use transform="matrix(0.05,0,0,0.05,0,0)" xlink:href="#az"/><use transform="matrix(0.05,0,0,0.05,10,0)" xlink:href="#ai"/></g><path d="M212-179c-10-28-35-45-73-45-59 0-87 40-87 99 0 60 29 101 89 101 43 0 62-24 78-52l27 14C228-24 195 4 139 4 59 4 22-46 18-125c-6-104 99-153 187-111 19 9 31 26 39 46" id="aB"/><g id="l"><use transform="matrix(0.05,0,0,0.05,0,0)" xlink:href="#aB"/><use transform="matrix(0.05,0,0,0.05,12.950000000000001,0)" xlink:href="#af"/><use transform="matrix(0.05,0,0,0.05,16.900000000000002,0)" xlink:href="#ao"/><use transform="matrix(0.05,0,0,0.05,22.85,0)" xlink:href="#av"/><use transform="matrix(0.05,0,0,0.05,31.85,0)" xlink:href="#al"/><use transform="matrix(0.05,0,0,0.05,35.800000000000004,0)" xlink:href="#ai"/></g><path d="M108 0H70L1-190h34L89-25l56-165h34" id="aC"/><g id="m"><use transform="matrix(0.05,0,0,0.05,0,0)" xlink:href="#at"/><use transform="matrix(0.05,0,0,0.05,12,0)" xlink:href="#ao"/><use transform="matrix(0.05,0,0,0.05,17.95,0)" xlink:href="#af"/><use transform="matrix(0.05,0,0,0.05,21.9,0)" xlink:href="#aC"/><use transform="matrix(0.05,0,0,0.05,30.899999999999995,0)" xlink:href="#ac"/><use transform="matrix(0.05,0,0,0.05,40.9,0)" xlink:href="#ad"/><use transform="matrix(0.05,0,0,0.05,45.9,0)" xlink:href="#ai"/></g><g id="n"><use transform="matrix(0.05,0,0,0.05,0,0)" xlink:href="#aw"/><use transform="matrix(0.05,0,0,0.05,12,0)" xlink:href="#ai"/><use transform="matrix(0.05,0,0,0.05,22,0)" xlink:href="#ax"/></g><g id="o"><use transform="matrix(0.05,0,0,0.05,0,0)" xlink:href="#ag"/><use transform="matrix(0.05,0,0,0.05,3.95,0)" xlink:href="#ai"/></g><g id="p"><use transform="matrix(0.05,0,0,0.05,0,0)" xlink:href="#am"/><use transform="matrix(0.05,0,0,0.05,9,0)" xlink:href="#ad"/><use transform="matrix(0.05,0,0,0.05,14,0)" xlink:href="#au"/><use transform="matrix(0.05,0,0,0.05,24,0)" xlink:href="#au"/><use transform="matrix(0.05,0,0,0.05,34,0)" xlink:href="#ao"/><use transform="matrix(0.05,0,0,0.05,39.95,0)" xlink:href="#ad"/></g><g id="q"><use transform="matrix(0.05,0,0,0.05,0,0)" xlink:href="#af"/><use transform="matrix(0.05,0,0,0.05,3.95,0)" xlink:href="#ai"/><use transform="matrix(0.05,0,0,0.05,13.949999999999998,0)" xlink:href="#ad"/><use transform="matrix(0.05,0,0,0.05,18.95,0)" xlink:href="#am"/></g><g id="r"><use transform="matrix(0.05,0,0,0.05,0,0)" xlink:href="#ae"/><use transform="matrix(0.05,0,0,0.05,12.950000000000001,0)" xlink:href="#af"/><use transform="matrix(0.05,0,0,0.05,16.900000000000002,0)" xlink:href="#al"/></g><g id="s"><use transform="matrix(0.05,0,0,0.05,0,0)" xlink:href="#az"/><use transform="matrix(0.05,0,0,0.05,10,0)" xlink:href="#ap"/><use transform="matrix(0.05,0,0,0.05,20,0)" xlink:href="#ai"/><use transform="matrix(0.05,0,0,0.05,30,0)" xlink:href="#ak"/><use transform="matrix(0.05,0,0,0.05,40,0)" xlink:href="#aq"/></g><path d="M160-131c35 5 61 23 61 61C221 17 115-2 30 0v-248c76 3 177-17 177 60 0 33-19 50-47 57zm-97-11c50-1 110 9 110-42 0-47-63-36-110-37v79zm0 115c55-2 124 14 124-45 0-56-70-42-124-44v89" id="aD"/><path d="M0 4l72-265h28L28 4H0" id="aE"/><g id="t"><use transform="matrix(0.05,0,0,0.05,0,0)" xlink:href="#aD"/><use transform="matrix(0.05,0,0,0.05,12,0)" xlink:href="#ai"/><use transform="matrix(0.05,0,0,0.05,22,0)" xlink:href="#ao"/><use transform="matrix(0.05,0,0,0.05,27.950000000000003,0)" xlink:href="#af"/><use transform="matrix(0.05,0,0,0.05,31.899999999999995,0)" xlink:href="#av"/><use transform="matrix(0.05,0,0,0.05,40.9,0)" xlink:href="#ah"/><use transform="matrix(0.05,0,0,0.05,50.9,0)" xlink:href="#ad"/><use transform="matrix(0.05,0,0,0.05,55.900000000000006,0)" xlink:href="#aE"/><use transform="matrix(0.05,0,0,0.05,60.900000000000006,0)" xlink:href="#av"/><use transform="matrix(0.05,0,0,0.05,69.9,0)" xlink:href="#ap"/><use transform="matrix(0.05,0,0,0.05,79.9,0)" xlink:href="#as"/><use transform="matrix(0.05,0,0,0.05,94.85000000000001,0)" xlink:href="#as"/><use transform="matrix(0.05,0,0,0.05,109.80000000000001,0)" xlink:href="#ac"/><use transform="matrix(0.05,0,0,0.05,119.80000000000001,0)" xlink:href="#ak"/><use transform="matrix(0.05,0,0,0.05,129.8,0)" xlink:href="#az"/></g><path d="M87 75C49 33 22-17 22-94c0-76 28-126 65-167h31c-38 41-64 92-64 168S80 34 118 75H87" id="aF"/><path d="M33-261c38 41 65 92 65 168S71 34 33 75H2C39 34 66-17 66-93S39-220 2-261h31" id="aG"/><g id="u"><use transform="matrix(0.05,0,0,0.05,0,0)" xlink:href="#aF"/><use transform="matrix(0.05,0,0,0.05,5.95,0)" xlink:href="#az"/><use transform="matrix(0.05,0,0,0.05,15.949999999999998,0)" xlink:href="#ac"/><use transform="matrix(0.05,0,0,0.05,25.950000000000003,0)" xlink:href="#ad"/><use transform="matrix(0.05,0,0,0.05,30.950000000000003,0)" xlink:href="#ac"/><use transform="matrix(0.05,0,0,0.05,40.95,0)" xlink:href="#aG"/></g><path d="M30 0v-248h187v28H63v79h144v27H63v87h162V0H30" id="aH"/><g id="v"><use transform="matrix(0.05,0,0,0.05,0,0)" xlink:href="#aH"/><use transform="matrix(0.05,0,0,0.05,12,0)" xlink:href="#ak"/><use transform="matrix(0.05,0,0,0.05,22,0)" xlink:href="#av"/><use transform="matrix(0.05,0,0,0.05,31,0)" xlink:href="#ao"/><use transform="matrix(0.05,0,0,0.05,36.95,0)" xlink:href="#af"/><use transform="matrix(0.05,0,0,0.05,40.900000000000006,0)" xlink:href="#an"/><use transform="matrix(0.05,0,0,0.05,50.900000000000006,0)" xlink:href="#ad"/><use transform="matrix(0.05,0,0,0.05,55.900000000000006,0)" xlink:href="#ai"/><use transform="matrix(0.05,0,0,0.05,65.9,0)" xlink:href="#az"/></g><path d="M197 0v-115H63V0H30v-248h33v105h134v-105h34V0h-34" id="aI"/><g id="w"><use transform="matrix(0.05,0,0,0.05,0,0)" xlink:href="#aI"/><use transform="matrix(0.05,0,0,0.05,12.950000000000001,0)" xlink:href="#ac"/><use transform="matrix(0.05,0,0,0.05,22.950000000000003,0)" xlink:href="#am"/><use transform="matrix(0.05,0,0,0.05,31.950000000000003,0)" xlink:href="#ah"/></g><g id="x"><use transform="matrix(0.05,0,0,0.05,0,0)" xlink:href="#aC"/><use transform="matrix(0.05,0,0,0.05,9,0)" xlink:href="#ac"/><use transform="matrix(0.05,0,0,0.05,19,0)" xlink:href="#ak"/></g><g id="y"><use transform="matrix(0.05,0,0,0.05,0,0)" xlink:href="#az"/><use transform="matrix(0.05,0,0,0.05,10,0)" xlink:href="#ac"/><use transform="matrix(0.05,0,0,0.05,20,0)" xlink:href="#ad"/><use transform="matrix(0.05,0,0,0.05,25,0)" xlink:href="#ac"/></g><g id="z"><use transform="matrix(0.05,0,0,0.05,0,0)" xlink:href="#aI"/><use transform="matrix(0.05,0,0,0.05,12.950000000000001,0)" xlink:href="#ac"/><use transform="matrix(0.05,0,0,0.05,22.950000000000003,0)" xlink:href="#am"/><use transform="matrix(0.05,0,0,0.05,31.950000000000003,0)" xlink:href="#ah"/><use transform="matrix(0.05,0,0,0.05,41.95,0)" xlink:href="#ad"/></g><g id="A"><use transform="matrix(0.05,0,0,0.05,0,0)" xlink:href="#aH"/><use transform="matrix(0.05,0,0,0.05,12,0)" xlink:href="#ak"/><use transform="matrix(0.05,0,0,0.05,22,0)" xlink:href="#av"/><use transform="matrix(0.05,0,0,0.05,31,0)" xlink:href="#ao"/><use transform="matrix(0.05,0,0,0.05,36.95,0)" xlink:href="#ax"/><use transform="matrix(0.05,0,0,0.05,45.95,0)" xlink:href="#an"/><use transform="matrix(0.05,0,0,0.05,55.95,0)" xlink:href="#ad"/><use transform="matrix(0.05,0,0,0.05,60.95,0)" xlink:href="#af"/><use transform="matrix(0.05,0,0,0.05,64.9,0)" xlink:href="#ai"/></g><g id="B"><use transform="matrix(0.05,0,0,0.05,0,0)" xlink:href="#am"/><use transform="matrix(0.05,0,0,0.05,9,0)" xlink:href="#ai"/><use transform="matrix(0.05,0,0,0.05,19,0)" xlink:href="#ao"/><use transform="matrix(0.05,0,0,0.05,24.95,0)" xlink:href="#aC"/><use transform="matrix(0.05,0,0,0.05,33.95,0)" xlink:href="#ai"/><use transform="matrix(0.05,0,0,0.05,43.95,0)" xlink:href="#ao"/></g><g id="C"><use transform="matrix(0.05,0,0,0.05,0,0)" xlink:href="#ai"/><use transform="matrix(0.05,0,0,0.05,10,0)" xlink:href="#ao"/></g><g id="D"><use transform="matrix(0.05,0,0,0.05,0,0)" xlink:href="#as"/><use transform="matrix(0.05,0,0,0.05,14.950000000000001,0)" xlink:href="#ai"/><use transform="matrix(0.05,0,0,0.05,24.950000000000003,0)" xlink:href="#ai"/></g><g id="E"><use transform="matrix(0.05,0,0,0.05,0,0)" xlink:href="#az"/><use transform="matrix(0.05,0,0,0.05,10,0)" xlink:href="#ap"/><use transform="matrix(0.05,0,0,0.05,20,0)" xlink:href="#ai"/><use transform="matrix(0.05,0,0,0.05,30,0)" xlink:href="#ad"/><use transform="matrix(0.05,0,0,0.05,35,0)" xlink:href="#aq"/></g><g id="F"><use transform="matrix(0.05,0,0,0.05,0,0)" xlink:href="#aw"/><use transform="matrix(0.05,0,0,0.05,12,0)" xlink:href="#af"/><use transform="matrix(0.05,0,0,0.05,15.949999999999998,0)" xlink:href="#ag"/><use transform="matrix(0.05,0,0,0.05,19.9,0)" xlink:href="#aA"/><use transform="matrix(0.05,0,0,0.05,28.899999999999995,0)" xlink:href="#ad"/></g><path d="M101-234c-31-9-42 10-38 44h38v23H63V0H32v-167H5v-23h27c-7-52 17-82 69-68v24" id="aJ"/><g id="G"><use transform="matrix(0.05,0,0,0.05,0,0)" xlink:href="#ap"/><use transform="matrix(0.05,0,0,0.05,10,0)" xlink:href="#aJ"/></g><g id="H"><use transform="matrix(0.05,0,0,0.05,0,0)" xlink:href="#av"/><use transform="matrix(0.05,0,0,0.05,9,0)" xlink:href="#ai"/><use transform="matrix(0.05,0,0,0.05,19,0)" xlink:href="#ao"/><use transform="matrix(0.05,0,0,0.05,24.95,0)" xlink:href="#ad"/></g><g id="I"><use transform="matrix(0.05,0,0,0.05,0,0)" xlink:href="#aF"/><use transform="matrix(0.05,0,0,0.05,5.95,0)" xlink:href="#an"/><use transform="matrix(0.05,0,0,0.05,15.949999999999998,0)" xlink:href="#au"/><use transform="matrix(0.05,0,0,0.05,25.950000000000003,0)" xlink:href="#aj"/><use transform="matrix(0.05,0,0,0.05,35.95,0)" xlink:href="#al"/><use transform="matrix(0.05,0,0,0.05,39.900000000000006,0)" xlink:href="#af"/><use transform="matrix(0.05,0,0,0.05,43.85000000000001,0)" xlink:href="#av"/></g><g id="J"><use transform="matrix(0.05,0,0,0.05,0,0)" xlink:href="#aA"/><use transform="matrix(0.05,0,0,0.05,9,0)" xlink:href="#ai"/><use transform="matrix(0.05,0,0,0.05,19,0)" xlink:href="#ax"/><use transform="matrix(0.05,0,0,0.05,28,0)" xlink:href="#aG"/></g><g id="K"><use transform="matrix(0.05,0,0,0.05,0,0)" xlink:href="#af"/><use transform="matrix(0.05,0,0,0.05,3.95,0)" xlink:href="#ak"/></g><g id="L"><use transform="matrix(0.05,0,0,0.05,0,0)" xlink:href="#az"/><use transform="matrix(0.05,0,0,0.05,10,0)" xlink:href="#ai"/></g><g id="M"><use transform="matrix(0.05,0,0,0.05,0,0)" xlink:href="#az"/><use transform="matrix(0.05,0,0,0.05,10,0)" xlink:href="#ac"/><use transform="matrix(0.05,0,0,0.05,20,0)" xlink:href="#ad"/><use transform="matrix(0.05,0,0,0.05,25,0)" xlink:href="#ac"/><use transform="matrix(0.05,0,0,0.05,35,0)" xlink:href="#aj"/><use transform="matrix(0.05,0,0,0.05,45,0)" xlink:href="#ac"/><use transform="matrix(0.05,0,0,0.05,55,0)" xlink:href="#am"/><use transform="matrix(0.05,0,0,0.05,64,0)" xlink:href="#ai"/></g><g id="N"><use transform="matrix(0.05,0,0,0.05,0,0)" xlink:href="#am"/><use transform="matrix(0.05,0,0,0.05,9,0)" xlink:href="#ad"/><use transform="matrix(0.05,0,0,0.05,14,0)" xlink:href="#ac"/><use transform="matrix(0.05,0,0,0.05,24,0)" xlink:href="#ac"/><use transform="matrix(0.05,0,0,0.05,34,0)" xlink:href="#ad"/></g><path d="M30-248c118-7 216 8 213 122C240-48 200 0 122 0H30v-248zM63-27c89 8 146-16 146-99s-60-101-146-95v194" id="aK"/><g id="O"><use transform="matrix(0.05,0,0,0.05,0,0)" xlink:href="#aK"/><use transform="matrix(0.05,0,0,0.05,12.950000000000001,0)" xlink:href="#ai"/><use transform="matrix(0.05,0,0,0.05,22.950000000000003,0)" xlink:href="#av"/><use transform="matrix(0.05,0,0,0.05,31.950000000000003,0)" xlink:href="#ao"/><use transform="matrix(0.05,0,0,0.05,37.900000000000006,0)" xlink:href="#ax"/><use transform="matrix(0.05,0,0,0.05,46.900000000000006,0)" xlink:href="#an"/><use transform="matrix(0.05,0,0,0.05,56.900000000000006,0)" xlink:href="#ad"/></g><g id="P"><use transform="matrix(0.05,0,0,0.05,0,0)" xlink:href="#as"/><use transform="matrix(0.05,0,0,0.05,14.950000000000001,0)" xlink:href="#ai"/><use transform="matrix(0.05,0,0,0.05,24.950000000000003,0)" xlink:href="#ad"/></g><g id="Q"><use transform="matrix(0.05,0,0,0.05,0,0)" xlink:href="#an"/><use transform="matrix(0.05,0,0,0.05,10,0)" xlink:href="#au"/><use transform="matrix(0.05,0,0,0.05,20,0)" xlink:href="#aj"/><use transform="matrix(0.05,0,0,0.05,30,0)" xlink:href="#al"/><use transform="matrix(0.05,0,0,0.05,33.95,0)" xlink:href="#af"/><use transform="matrix(0.05,0,0,0.05,37.900000000000006,0)" xlink:href="#av"/></g><g id="R"><use transform="matrix(0.05,0,0,0.05,0,0)" xlink:href="#aA"/><use transform="matrix(0.05,0,0,0.05,9,0)" xlink:href="#ai"/><use transform="matrix(0.05,0,0,0.05,19,0)" xlink:href="#ax"/></g><path d="M137 0h-34L2-248h35l83 218 83-218h36" id="aL"/><path d="M177-190C167-65 218 103 67 71c-23-6-38-20-44-43l32-5c15 47 100 32 89-28v-30C133-14 115 1 83 1 29 1 15-40 15-95c0-56 16-97 71-98 29-1 48 16 59 35 1-10 0-23 2-32h30zM94-22c36 0 50-32 50-73 0-42-14-75-50-75-39 0-46 34-46 75s6 73 46 73" id="aM"/><g id="S"><use transform="matrix(0.05,0,0,0.05,0,0)" xlink:href="#aL"/><use transform="matrix(0.05,0,0,0.05,11,0)" xlink:href="#ai"/><use transform="matrix(0.05,0,0,0.05,21,0)" xlink:href="#ao"/><use transform="matrix(0.05,0,0,0.05,26.950000000000003,0)" xlink:href="#aM"/><use transform="matrix(0.05,0,0,0.05,36.95,0)" xlink:href="#ai"/><use transform="matrix(0.05,0,0,0.05,46.95,0)" xlink:href="#al"/><use transform="matrix(0.05,0,0,0.05,50.900000000000006,0)" xlink:href="#af"/><use transform="matrix(0.05,0,0,0.05,54.85,0)" xlink:href="#ag"/><use transform="matrix(0.05,0,0,0.05,58.80000000000001,0)" xlink:href="#aA"/><use transform="matrix(0.05,0,0,0.05,67.80000000000001,0)" xlink:href="#ad"/></g><g id="T"><use transform="matrix(0.05,0,0,0.05,0,0)" xlink:href="#az"/><use transform="matrix(0.05,0,0,0.05,10,0)" xlink:href="#ai"/></g><g id="U"><use transform="matrix(0.05,0,0,0.05,0,0)" xlink:href="#ah"/><use transform="matrix(0.05,0,0,0.05,10,0)" xlink:href="#ac"/><use transform="matrix(0.05,0,0,0.05,20,0)" xlink:href="#am"/><use transform="matrix(0.05,0,0,0.05,29,0)" xlink:href="#ah"/></g><g id="V"><use transform="matrix(0.05,0,0,0.05,0,0)" xlink:href="#aL"/><use transform="matrix(0.05,0,0,0.05,11,0)" xlink:href="#ap"/><use transform="matrix(0.05,0,0,0.05,21,0)" xlink:href="#ai"/><use transform="matrix(0.05,0,0,0.05,31,0)" xlink:href="#ao"/><use transform="matrix(0.05,0,0,0.05,36.95,0)" xlink:href="#ad"/></g><g id="W"><use transform="matrix(0.05,0,0,0.05,0,0)" xlink:href="#av"/><use transform="matrix(0.05,0,0,0.05,9,0)" xlink:href="#ap"/><use transform="matrix(0.05,0,0,0.05,19,0)" xlink:href="#as"/><use transform="matrix(0.05,0,0,0.05,33.95,0)" xlink:href="#as"/><use transform="matrix(0.05,0,0,0.05,48.900000000000006,0)" xlink:href="#ac"/><use transform="matrix(0.05,0,0,0.05,58.900000000000006,0)" xlink:href="#ak"/><use transform="matrix(0.05,0,0,0.05,68.9,0)" xlink:href="#az"/><use transform="matrix(0.05,0,0,0.05,78.9,0)" xlink:href="#aE"/><use transform="matrix(0.05,0,0,0.05,83.9,0)" xlink:href="#az"/><use transform="matrix(0.05,0,0,0.05,93.9,0)" xlink:href="#ac"/><use transform="matrix(0.05,0,0,0.05,103.9,0)" xlink:href="#ad"/><use transform="matrix(0.05,0,0,0.05,108.9,0)" xlink:href="#ac"/></g><g id="X"><use transform="matrix(0.05,0,0,0.05,0,0)" xlink:href="#au"/><use transform="matrix(0.05,0,0,0.05,10,0)" xlink:href="#af"/><use transform="matrix(0.05,0,0,0.05,13.949999999999998,0)" xlink:href="#ad"/></g><path d="M205 0l-28-72H64L36 0H1l101-248h38L239 0h-34zm-38-99l-47-123c-12 45-31 82-46 123h93" id="aN"/><g id="Y"><use transform="matrix(0.05,0,0,0.05,0,0)" xlink:href="#aN"/><use transform="matrix(0.05,0,0,0.05,12,0)" xlink:href="#al"/><use transform="matrix(0.05,0,0,0.05,15.949999999999998,0)" xlink:href="#am"/></g><g id="Z"><use transform="matrix(0.05,0,0,0.05,0,0)" xlink:href="#aC"/><use transform="matrix(0.05,0,0,0.05,9,0)" xlink:href="#ai"/><use transform="matrix(0.05,0,0,0.05,19,0)" xlink:href="#ao"/><use transform="matrix(0.05,0,0,0.05,24.95,0)" xlink:href="#aM"/><use transform="matrix(0.05,0,0,0.05,34.95,0)" xlink:href="#ai"/><use transform="matrix(0.05,0,0,0.05,44.95,0)" xlink:href="#al"/><use transform="matrix(0.05,0,0,0.05,48.900000000000006,0)" xlink:href="#af"/><use transform="matrix(0.05,0,0,0.05,52.85,0)" xlink:href="#ag"/><use transform="matrix(0.05,0,0,0.05,56.80000000000001,0)" xlink:href="#aA"/><use transform="matrix(0.05,0,0,0.05,65.80000000000001,0)" xlink:href="#af"/><use transform="matrix(0.05,0,0,0.05,69.75000000000001,0)" xlink:href="#ak"/><use transform="matrix(0.05,0,0,0.05,79.75000000000001,0)" xlink:href="#aM"/></g><g id="aa"><use transform="matrix(0.05,0,0,0.05,0,0)" xlink:href="#aA"/><use transform="matrix(0.05,0,0,0.05,9,0)" xlink:href="#al"/><use transform="matrix(0.05,0,0,0.05,12.949999999999998,0)" xlink:href="#ap"/><use transform="matrix(0.05,0,0,0.05,22.95,0)" xlink:href="#an"/><use transform="matrix(0.05,0,0,0.05,32.95,0)" xlink:href="#ad"/></g></defs></g></svg>