<svg xmlns="http://www.w3.org/2000/svg" xmlns:xlink="http://www.w3.org/1999/xlink" xmlns:lucid="lucid" width="1928" height="1360"><g transform="translate(320 -40)" lucid:page-tab-id="0_0"><path d="M140 136l91.2-76H920v668.8L844 820H140z" stroke="#000" stroke-width="2" fill="#fff"/><path d="M140 136l91.2-76H920l-76 76z" stroke="#000" stroke-width="2" fill="#e6e6e6"/><path d="M844 136l76-76v668.8L844 820z" stroke="#000" stroke-width="2" fill="#ccc"/><use xlink:href="#a" transform="matrix(1,0,0,1,148,144) translate(0 16.6)"/><use xlink:href="#b" transform="matrix(1,0,0,1,148,144) translate(49.85 16.6)"/><path d="M360 460h140v120H360z" stroke="#000" stroke-width="2" fill="#fff"/><path d="M340 480h40v20h-40zM340 540h40v20h-40z" stroke="#000" stroke-width="2" fill="#fff"/><use xlink:href="#c" transform="matrix(1,0,0,1,372,472) translate(12.074999999999996 51.6)"/><path d="M560 460h140v120H560z" stroke="#000" stroke-width="2" fill="#fff"/><path d="M540 480h40v20h-40zM540 540h40v20h-40z" stroke="#000" stroke-width="2" fill="#fff"/><use xlink:href="#d" transform="matrix(1,0,0,1,572,472) translate(36.074999999999996 51.6)"/><path d="M180 180h140v120H180z" stroke="#000" stroke-width="2" fill="#fff"/><path d="M160 200h40v20h-40zM160 260h40v20h-40z" stroke="#000" stroke-width="2" fill="#fff"/><use xlink:href="#e" transform="matrix(1,0,0,1,192,192) translate(-0.8250000000000028 51.6)"/><path d="M1088 135l60-50h440v650l-50 60h-450z" stroke="#000" stroke-width="2" fill="#fff"/><path d="M1088 135l60-50h440l-50 50z" stroke="#000" stroke-width="2" fill="#e6e6e6"/><path d="M1538 135l50-50v650l-50 60z" stroke="#000" stroke-width="2" fill="#ccc"/><use xlink:href="#f" transform="matrix(1,0,0,1,1096,164) translate(0 16.6)"/><use xlink:href="#b" transform="matrix(1,0,0,1,1096,164) translate(84.85000000000001 16.6)"/><path d="M1248 375h140v120h-140z" stroke="#000" stroke-width="2" fill="#fff"/><path d="M1228 395h40v20h-40zM1228 455h40v20h-40z" stroke="#000" stroke-width="2" fill="#fff"/><use xlink:href="#g" transform="matrix(1,0,0,1,1260,387) translate(39.575 51.6)"/><path d="M1248 192h140v120h-140z" stroke="#000" stroke-width="2" fill="#fff"/><path d="M1228 212h40v20h-40zM1228 272h40v20h-40z" stroke="#000" stroke-width="2" fill="#fff"/><use xlink:href="#h" transform="matrix(1,0,0,1,1260,204) translate(31.025 51.6)"/><path d="M120 948l57.6-48H1060v422.4l-48 57.6H120z" stroke="#000" stroke-width="2" fill="#fff"/><path d="M120 948l57.6-48H1060l-48 48z" stroke="#000" stroke-width="2" fill="#e6e6e6"/><path d="M1012 948l48-48v422.4l-48 57.6z" stroke="#000" stroke-width="2" fill="#ccc"/><use xlink:href="#i" transform="matrix(1,0,0,1,128,956) translate(0 16.6)"/><use xlink:href="#j" transform="matrix(1,0,0,1,128,956) translate(82.70000000000002 16.6)"/><path d="M160 980h140v120H160z" stroke="#000" stroke-width="2" fill="#fff"/><path d="M140 1000h40v20h-40zM140 1060h40v20h-40z" stroke="#000" stroke-width="2" fill="#fff"/><use xlink:href="#k" transform="matrix(1,0,0,1,172,992) translate(18.049999999999997 51.6)"/><path d="M380 980h140v120H380z" stroke="#000" stroke-width="2" fill="#fff"/><path d="M360 1000h40v20h-40zM360 1060h40v20h-40z" stroke="#000" stroke-width="2" fill="#fff"/><use xlink:href="#l" transform="matrix(1,0,0,1,392,992) translate(25.525 51.6)"/><path d="M820 980h140v120H820z" stroke="#000" stroke-width="2" fill="#fff"/><path d="M800 1000h40v20h-40zM800 1060h40v20h-40z" stroke="#000" stroke-width="2" fill="#fff"/><use xlink:href="#d" transform="matrix(1,0,0,1,832,992) translate(36.074999999999996 51.6)"/><path d="M480 1203.2h140v120H480z" stroke="#000" stroke-width="2" fill="#fff"/><path d="M460 1223.2h40v20h-40zM460 1283.2h40v20h-40z" stroke="#000" stroke-width="2" fill="#fff"/><use xlink:href="#e" transform="matrix(1,0,0,1,492,1215.1999999999998) translate(-0.8250000000000028 51.6)"/><path d="M600 980h140v120H600z" stroke="#000" stroke-width="2" fill="#fff"/><path d="M580 1000h40v20h-40zM580 1060h40v20h-40z" stroke="#000" stroke-width="2" fill="#fff"/><use xlink:href="#m" transform="matrix(1,0,0,1,612,992) translate(29.4 51.6)"/><path d="M-300 456l43.2-36H60v356.8L24 820h-324z" stroke="#000" stroke-width="2" fill="#fff"/><path d="M-300 456l43.2-36H60l-36 36z" stroke="#000" stroke-width="2" fill="#e6e6e6"/><path d="M24 456l36-36v356.8L24 820z" stroke="#000" stroke-width="2" fill="#ccc"/><use xlink:href="#n" transform="matrix(1,0,0,1,-292,468) translate(0 16.6)"/><path d="M-220 580h140v120h-140z" stroke="#000" stroke-width="2" fill="#fff"/><path d="M-240 600h40v20h-40zM-240 660h40v20h-40z" stroke="#000" stroke-width="2" fill="#fff"/><use xlink:href="#o" transform="matrix(1,0,0,1,-208,592) translate(33.2 51.6)"/><path d="M922 440h164" stroke="#000" stroke-width="2" fill="none"/><path d="M922.03 441H921v-2h1.03zM1087 441h-1.03v-2h1.03z"/><use xlink:href="#p" transform="matrix(1,0,0,1,969.4719522798786,444) translate(0 14.4)"/><path d="M380 180h140v120H380z" stroke="#000" stroke-width="2" fill="#fff"/><path d="M360 200h40v20h-40zM360 260h40v20h-40z" stroke="#000" stroke-width="2" fill="#fff"/><use xlink:href="#q" transform="matrix(1,0,0,1,392,192) translate(26.124999999999996 51.6)"/><path d="M379.33 458v-78h-98.66v-77.18" fill="none"/><path d="M379.33 458v-10.58m0-10.57V415.7m0-10.6v-21.14m-6.6-3.96h-21.17M341 380h-21.17m-10.57 0H288.1m-7.43-3.14V355.7m0-10.57v-21.16m0-10.57v-10.58" stroke="#000" stroke-width="2" fill="none"/><path d="M380.33 459h-2v-1.03h2z"/><path d="M290.85 320.18l-10.18-17.22-10.18 17.22" stroke="#000" stroke-width="2" fill="none"/><path d="M579.33 458v-78h-98.66v-77.18" fill="none"/><path d="M579.33 458v-10.58m0-10.57V415.7m0-10.6v-21.14m-6.6-3.96h-21.17M541 380h-21.17m-10.57 0H488.1m-7.43-3.14V355.7m0-10.57v-21.16m0-10.57v-10.58" stroke="#000" stroke-width="2" fill="none"/><path d="M580.33 459h-2v-1.03h2z"/><path d="M490.85 320.18l-10.18-17.22-10.18 17.22" stroke="#000" stroke-width="2" fill="none"/><path d="M1248 558h140v120h-140z" stroke="#000" stroke-width="2" fill="#fff"/><path d="M1228 578h40v20h-40zM1228 638h40v20h-40z" stroke="#000" stroke-width="2" fill="#fff"/><use xlink:href="#d" transform="matrix(1,0,0,1,1260,570) translate(36.074999999999996 51.6)"/><path d="M702 520h262v67.63h261.18" fill="none"/><path d="M702 520h9.85m9.84 0h19.7m9.83 0h19.7m9.84 0h19.7m9.84 0H830m9.85 0h19.7m9.85 0h19.7m9.84 0h19.7m9.84 0h19.7m9.84 0H964v13.7m0 9.86v19.7m0 9.84v14.52h5.17m9.84 0h19.7m9.85 0h19.7m9.84 0h19.7m9.83 0h19.7m9.84 0h19.7m9.84 0h19.7m9.85 0h19.7m9.84 0h19.7m9.84 0h9.84" stroke="#000" stroke-width="2" fill="none"/><path d="M702.03 521H701v-2h1.03z"/><path d="M1207.82 597.8l17.22-10.17-17.22-10.2" stroke="#000" stroke-width="2" fill="none"/><path d="M522 270.38h352v134.25h351.18" fill="none"/><path d="M522 270.38h9.97m9.97 0h19.94m9.97 0h19.94m9.96 0h19.93m9.96 0h19.94m9.97 0h19.94m9.98 0h19.94m9.97 0h19.93m9.97 0h19.94m9.97 0h19.94m9.97 0h19.95m9.97 0h19.94m9.97 0H874v16.86m0 9.97v19.95m0 9.97v19.94m0 9.97v19.94m0 9.97v17.7h2.25m9.97 0h19.94m9.97 0h19.94m9.97 0h19.94m9.97 0h19.94m9.95 0h19.94m9.96 0h19.94m9.97 0h19.94m9.98 0h19.94m9.97 0h19.93m9.97 0h19.93m9.97 0h19.94m9.97 0h9.98" stroke="#000" stroke-width="2" fill="none"/><path d="M522.03 271.38H521v-2h1.03z"/><path d="M1207.82 414.8l17.22-10.18-17.22-10.18" stroke="#000" stroke-width="2" fill="none"/><path d="M180 460h140v120H180z" stroke="#000" stroke-width="2" fill="#fff"/><path d="M160 480h40v20h-40zM160 540h40v20h-40z" stroke="#000" stroke-width="2" fill="#fff"/><use xlink:href="#r" transform="matrix(1,0,0,1,192,472) translate(38.575 51.6)"/><path d="M460.67 458v-78H440v-77.18" fill="none"/><path d="M460.67 458v-9.77m0-9.77v-19.54m0-9.77V389.6m-.16-9.6h-19.53m-.97-8.8v-19.54m0-9.76v-19.54m0-9.77v-9.78" stroke="#000" stroke-width="2" fill="none"/><path d="M461.67 459h-2v-1.03h2z"/><path d="M450.18 320.18L440 302.96l-10.18 17.22" stroke="#000" stroke-width="2" fill="none"/><path d="M240 458V302.82" fill="none"/><path d="M240 458v-10.35m0-10.34v-20.68m0-10.35v-20.7m0-10.33v-20.7m0-10.34v-20.7m0-10.34v-10.34" stroke="#000" stroke-width="2" fill="none"/><path d="M241 459h-2v-1.03h2z"/><path d="M250.18 320.18L240 302.96l-10.18 17.22" stroke="#000" stroke-width="2" fill="none"/><path d="M240 458v-78h159.33v-77.18" fill="none"/><path d="M240 458v-10.48m0-10.5v-20.96m0-10.48V384.6m5.87-4.6h20.97m10.48 0h20.97m10.47 0h20.97m10.5 0h20.95m10.48 0h20.96m6.7-3.8v-20.96m0-10.5V323.8m0-10.5v-10.48" stroke="#000" stroke-width="2" fill="none"/><path d="M241 459h-2v-1.03h2z"/><path d="M409.5 320.18l-10.17-17.22-10.18 17.22" stroke="#000" stroke-width="2" fill="none"/><path d="M620 458v-78H199.33v-77.18" fill="none"/><path d="M620 458v-10.1m0-10.1v-20.2m0-10.1v-20.22m-2.82-7.28h-20.2m-10.1 0h-20.2m-10.12 0h-20.2m-10.1 0h-20.2m-10.1 0h-20.22m-10.1 0h-20.2m-10.1 0h-20.2M405 380h-20.2m-10.1 0h-20.2m-10.1 0H324.2m-10.1 0h-20.2m-10.1 0h-20.2m-10.1 0h-20.22m-10.1 0h-20.2m-3.65-6.46v-20.2m0-10.1V323m0-10.1v-10.1" stroke="#000" stroke-width="2" fill="none"/><path d="M621 459h-2v-1.03h2z"/><path d="M209.5 320.18l-10.17-17.22-10.18 17.22" stroke="#000" stroke-width="2" fill="none"/><path d="M220 978V780h20V582.82" fill="none"/><path d="M220 978v-9.9m0-9.87v-19.77m0-9.9V908.8m0-9.88v-19.77m0-9.9V849.5m0-9.9v-19.76m0-9.9V790.2m0-9.9V780h19.48m.52-9.36v-19.77m0-9.9v-19.76m0-9.87v-19.77m0-9.9V661.9m0-9.88v-19.78m0-9.88V602.6m0-9.9v-9.88" stroke="#000" stroke-width="2" fill="none"/><path d="M221 979h-2v-1.03h2z"/><path d="M250.18 600.18L240 582.96l-10.18 17.22" stroke="#000" stroke-width="2" fill="none"/><path d="M440 978V780h-20V582.82" fill="none"/><path d="M440 978v-9.9m0-9.87v-19.77m0-9.9V908.8m0-9.88v-19.77m0-9.9V849.5m0-9.9v-19.76m0-9.9V790.2m0-9.9V780h-19.48m-.52-9.36v-19.77m0-9.9v-19.76m0-9.87v-19.77m0-9.9V661.9m0-9.88v-19.78m0-9.88V602.6m0-9.9v-9.88" stroke="#000" stroke-width="2" fill="none"/><path d="M441 979h-2v-1.03h2z"/><path d="M430.18 600.18L420 582.96l-10.18 17.22" stroke="#000" stroke-width="2" fill="none"/><path d="M660 978V780H460.67V582.82" fill="none"/><path d="M660 978v-9.9m0-9.92v-19.8m0-9.92v-19.82m0-9.9V878.9m0-9.9v-19.8m0-9.92v-19.82m0-9.9v-19.82m-.17-9.74H640m-9.9 0h-19.8m-9.92 0h-19.82m-9.9 0h-19.83m-9.9 0H521.1m-9.9 0h-19.82m-9.9 0h-19.82m-1-8.92v-19.82m0-9.9v-19.82m0-9.9V691.8m0-9.9v-19.8m0-9.92v-19.82m0-9.9v-19.82m0-9.9v-9.92" stroke="#000" stroke-width="2" fill="none"/><path d="M661 979h-2v-1.03h2z"/><path d="M470.85 600.18l-10.18-17.22-10.18 17.22" stroke="#000" stroke-width="2" fill="none"/><path d="M880 978V780H685.28V582.82" fill="none"/><path d="M880 978v-9.83m0-9.83v-19.67m0-9.83v-19.66m0-9.83v-19.67m0-9.83V850.2m0-9.84V820.7m0-9.84V791.2m0-9.83V780h-18.3m-9.83 0H832.2m-9.83 0H802.7m-9.82 0h-19.66m-9.84 0h-19.66m-9.83 0h-19.67m-9.84 0h-19.12v-.55m0-9.83v-19.66m0-9.83v-19.67m0-9.83v-19.66m0-9.83v-19.67m0-9.83v-19.66m0-9.83v-19.67m0-9.83v-9.83" stroke="#000" stroke-width="2" fill="none"/><path d="M881 979h-2v-1.03h2z"/><path d="M695.46 600.18l-10.18-17.22-10.18 17.22" stroke="#000" stroke-width="2" fill="none"/><path d="M742 1040h75.18" fill="none"/><path d="M742 1040h8.35m8.36 0h16.7m8.37 0h16.7m8.36 0h8.35" stroke="#000" stroke-width="2" fill="none"/><path d="M742.03 1041H741v-2h1.03z"/><path d="M799.82 1050.18l17.22-10.18-17.22-10.18" stroke="#000" stroke-width="2" fill="none"/><path d="M220 1102v49.6h279.33v48.78" fill="none"/><path d="M220 1102v9.7m0 9.67v19.37m0 9.7v1.16h18.2m9.68 0h19.37m9.7 0h19.36m9.7 0h19.36m9.7 0h19.36m9.68 0h19.37m9.7 0h19.36m9.68 0h19.38m9.7 0h19.36m9.68 0h19v.36m0 9.68V1181m0 9.7v9.68" stroke="#000" stroke-width="2" fill="none"/><path d="M221 1102.03h-2V1101h2z"/><path d="M489.15 1183.02l10.18 17.22 10.18-17.22" stroke="#000" stroke-width="2" fill="none"/><path d="M440 1102v49.6h101.2v48.78" fill="none"/><path d="M440 1102v9.5m0 9.5v19.02m0 9.5v2.08h16.93m9.5 0h19m9.5 0h19.02m9.5 0h17.75v1.26m0 9.5v19m0 9.52v9.5" stroke="#000" stroke-width="2" fill="none"/><path d="M441 1102.03h-2V1101h2z"/><path d="M531.02 1183.02l10.18 17.22 10.18-17.22" stroke="#000" stroke-width="2" fill="none"/><path d="M660 1102v49.6h-79.33v48.78" fill="none"/><path d="M660 1102v9.87m0 9.88v19.74m0 9.87v.23h-19.5m-9.88 0h-19.75m-9.87 0h-19.75m-.58 9.3v19.74m0 9.87v9.88" stroke="#000" stroke-width="2" fill="none"/><path d="M661 1102.03h-2V1101h2z"/><path d="M570.5 1183.02l10.17 17.22 10.18-17.22" stroke="#000" stroke-width="2" fill="none"/><path d="M880 1102v49.6H616.1v48.78" fill="none"/><path d="M880 1102v10.06m0 10.07v20.12m-.72 9.35h-20.12m-10.06 0h-20.13m-10.06 0H798.8m-10.06 0H768.6m-10.07 0H738.4m-10.06 0H708.2m-10.05 0h-20.13m-10.06 0h-20.13m-10.06 0h-20.12m-1.54 8.53v20.13m0 10.06v10.06" stroke="#000" stroke-width="2" fill="none"/><path d="M881 1102.03h-2V1101h2z"/><path d="M605.93 1183.02l10.18 17.22 10.2-17.22" stroke="#000" stroke-width="2" fill="none"/><path d="M379.33 582v88.38h-456.5" fill="none"/><path d="M379.33 582v10.1m0 10.08v20.18m0 10.1v20.17m0 10.1v7.64H366.8m-10.1 0h-20.17m-10.1 0h-20.17m-10.1 0H276m-10.1 0h-20.18m-10.1 0h-20.18m-10.1 0h-20.17m-10.1 0H154.9m-10.1 0h-20.17m-10.1 0H94.37m-10.1 0H64.1m-10.1 0H33.8m-10.08 0H3.54m-10.1 0h-20.17m-10.1 0H-57m-10.1 0h-10.08" stroke="#000" stroke-width="2" fill="none"/><path d="M380.33 582.03h-2V581h2z"/><path d="M-59.82 660.2l-17.22 10.17 17.22 10.2" stroke="#000" stroke-width="2" fill="none"/><path d="M240 178v-28h967v105.45h38.18" fill="none"/><path d="M240 178v-10m0-9.98V150h11.95m10 0h19.97m9.98 0h19.98m10 0h19.96m10 0h19.97m10 0h19.97m10 0h19.97m9.98 0h19.98m10 0h19.96m10 0h19.97m10 0h19.96m9.98 0h19.98m10 0h19.96m10 0h19.97m9.97 0h19.98m10 0h19.96m10 0h19.98m10 0h19.96m10 0h19.97m10 0h19.97m10 0h19.96m10 0h19.97m10 0h19.96m10 0h19.97m9.98 0h20m9.98 0h19.97m10 0H1031m10 0h19.96m10 0h19.97m9.98 0h19.98m10 0h19.97m10 0h19.97m10 0H1207v3.8m0 10v19.97m0 10v19.96m0 10v19.97m0 9.98v1.77h18.2m10 0h9.98" stroke="#000" stroke-width="2" fill="none"/><path d="M241 179h-2v-1.03h2z"/><path d="M1227.82 265.63l17.22-10.18-17.22-10.18" stroke="#000" stroke-width="2" fill="none"/><defs><path d="M175 0L67-191c6 58 2 128 3 191H24v-248h59L193-55c-6-58-2-129-3-193h46V0h-61" id="s"/><path d="M110-194c64 0 96 36 96 99 0 64-35 99-97 99-61 0-95-36-95-99 0-62 34-99 96-99zm-1 164c35 0 45-28 45-65 0-40-10-65-43-65-34 0-45 26-45 65 0 36 10 65 43 65" id="t"/><path d="M88-194c31-1 46 15 58 34l-1-101h50l1 261h-48c-2-10 0-23-3-31C134-8 116 4 84 4 32 4 16-41 15-95c0-56 19-97 73-99zm17 164c33 0 40-30 41-66 1-37-9-64-41-64s-38 30-39 65c0 43 13 65 39 65" id="u"/><path d="M185-48c-13 30-37 53-82 52C43 2 14-33 14-96s30-98 90-98c62 0 83 45 84 108H66c0 31 8 55 39 56 18 0 30-7 34-22zm-45-69c5-46-57-63-70-21-2 6-4 13-4 21h74" id="v"/><g id="a"><use transform="matrix(0.05,0,0,0.05,0,0)" xlink:href="#s"/><use transform="matrix(0.05,0,0,0.05,12.950000000000001,0)" xlink:href="#t"/><use transform="matrix(0.05,0,0,0.05,23.900000000000002,0)" xlink:href="#u"/><use transform="matrix(0.05,0,0,0.05,34.85,0)" xlink:href="#v"/></g><path d="M137-138c1-29-70-34-71-4 15 46 118 7 119 86 1 83-164 76-172 9l43-7c4 19 20 25 44 25 33 8 57-30 24-41C81-84 22-81 20-136c-2-80 154-74 161-7" id="w"/><path d="M135-150c-39-12-60 13-60 57V0H25l-1-190h47c2 13-1 29 3 40 6-28 27-53 61-41v41" id="x"/><path d="M128 0H69L1-190h53L99-40l48-150h52" id="y"/><g id="b"><use transform="matrix(0.05,0,0,0.05,0,0)" xlink:href="#w"/><use transform="matrix(0.05,0,0,0.05,10,0)" xlink:href="#v"/><use transform="matrix(0.05,0,0,0.05,20,0)" xlink:href="#x"/><use transform="matrix(0.05,0,0,0.05,27,0)" xlink:href="#y"/><use transform="matrix(0.05,0,0,0.05,37,0)" xlink:href="#v"/><use transform="matrix(0.05,0,0,0.05,47,0)" xlink:href="#x"/></g><path d="M169-182c-1-43-94-46-97-3 18 66 151 10 154 114 3 95-165 93-204 36-6-8-10-19-12-30l50-8c3 46 112 56 116 5-17-69-150-10-154-114-4-87 153-88 188-35 5 8 8 18 10 28" id="z"/><path d="M115-3C79 11 28 4 28-45v-112H4v-33h27l15-45h31v45h36v33H77v99c-1 23 16 31 38 25v30" id="A"/><path d="M133-34C117-15 103 5 69 4 32 3 11-16 11-54c-1-60 55-63 116-61 1-26-3-47-28-47-18 1-26 9-28 27l-52-2c7-38 36-58 82-57s74 22 75 68l1 82c-1 14 12 18 25 15v27c-30 8-71 5-69-32zm-48 3c29 0 43-24 42-57-32 0-66-3-65 30 0 17 8 27 23 27" id="B"/><path d="M220-157c-53 9-28 100-34 157h-49v-107c1-27-5-49-29-50C55-147 81-57 75 0H25l-1-190h47c2 12-1 28 3 38 10-53 101-56 108 0 13-22 24-43 59-42 82 1 51 116 57 194h-49v-107c-1-25-5-48-29-50" id="C"/><path d="M25-224v-37h50v37H25zM25 0v-190h50V0H25" id="D"/><path d="M135-194c87-1 58 113 63 194h-50c-7-57 23-157-34-157-59 0-34 97-39 157H25l-1-190h47c2 12-1 28 3 38 12-26 28-41 61-42" id="E"/><path d="M195-6C206 82 75 100 31 46c-4-6-6-13-8-21l49-6c3 16 16 24 34 25 40 0 42-37 40-79-11 22-30 35-61 35-53 0-70-43-70-97 0-56 18-96 73-97 30 0 46 14 59 34l2-30h47zm-90-29c32 0 41-27 41-63 0-35-9-62-40-62-32 0-39 29-40 63 0 36 9 62 39 62" id="F"/><g id="c"><use transform="matrix(0.05,0,0,0.05,0,0)" xlink:href="#z"/><use transform="matrix(0.05,0,0,0.05,12,0)" xlink:href="#A"/><use transform="matrix(0.05,0,0,0.05,17.95,0)" xlink:href="#x"/><use transform="matrix(0.05,0,0,0.05,24.95,0)" xlink:href="#v"/><use transform="matrix(0.05,0,0,0.05,34.95,0)" xlink:href="#B"/><use transform="matrix(0.05,0,0,0.05,44.95,0)" xlink:href="#C"/><use transform="matrix(0.05,0,0,0.05,60.95,0)" xlink:href="#D"/><use transform="matrix(0.05,0,0,0.05,65.95,0)" xlink:href="#E"/><use transform="matrix(0.05,0,0,0.05,76.9,0)" xlink:href="#F"/></g><path d="M67-125c0 53 21 87 73 88 37 1 54-22 65-47l45 17C233-25 199 4 140 4 58 4 20-42 15-125 8-235 124-281 211-232c18 10 29 29 36 50l-46 12c-8-25-30-41-62-41-52 0-71 34-72 86" id="G"/><path d="M114-157C55-157 80-60 75 0H25v-261h50l-1 109c12-26 28-41 61-42 86-1 58 113 63 194h-50c-7-57 23-157-34-157" id="H"/><g id="d"><use transform="matrix(0.05,0,0,0.05,0,0)" xlink:href="#G"/><use transform="matrix(0.05,0,0,0.05,12.950000000000001,0)" xlink:href="#H"/><use transform="matrix(0.05,0,0,0.05,23.900000000000002,0)" xlink:href="#B"/><use transform="matrix(0.05,0,0,0.05,33.900000000000006,0)" xlink:href="#A"/></g><path d="M199 0l-22-63H83L61 0H9l90-248h61L250 0h-51zm-33-102l-36-108c-10 38-24 72-36 108h72" id="I"/><path d="M85 4C-2 5 27-109 22-190h50c7 57-23 150 33 157 60-5 35-97 40-157h50l1 190h-47c-2-12 1-28-3-38-12 25-28 42-61 42" id="J"/><path d="M190-63c-7 42-38 67-86 67-59 0-84-38-90-98-12-110 154-137 174-36l-49 2c-2-19-15-32-35-32-30 0-35 28-38 64-6 74 65 87 74 30" id="K"/><g id="e"><use transform="matrix(0.05,0,0,0.05,0,0)" xlink:href="#I"/><use transform="matrix(0.05,0,0,0.05,12.950000000000001,0)" xlink:href="#J"/><use transform="matrix(0.05,0,0,0.05,23.900000000000002,0)" xlink:href="#A"/><use transform="matrix(0.05,0,0,0.05,29.85,0)" xlink:href="#H"/><use transform="matrix(0.05,0,0,0.05,40.800000000000004,0)" xlink:href="#v"/><use transform="matrix(0.05,0,0,0.05,50.800000000000004,0)" xlink:href="#E"/><use transform="matrix(0.05,0,0,0.05,61.75,0)" xlink:href="#A"/><use transform="matrix(0.05,0,0,0.05,67.7,0)" xlink:href="#D"/><use transform="matrix(0.05,0,0,0.05,72.7,0)" xlink:href="#K"/><use transform="matrix(0.05,0,0,0.05,82.7,0)" xlink:href="#B"/><use transform="matrix(0.05,0,0,0.05,92.7,0)" xlink:href="#A"/><use transform="matrix(0.05,0,0,0.05,98.65,0)" xlink:href="#D"/><use transform="matrix(0.05,0,0,0.05,103.65,0)" xlink:href="#v"/></g><path d="M24-248c120-7 223 5 221 122C244-46 201 0 124 0H24v-248zM76-40c74 7 117-18 117-86 0-67-45-88-117-82v168" id="L"/><path d="M135-194c52 0 70 43 70 98 0 56-19 99-73 100-30 1-46-15-58-35L72 0H24l1-261h50v104c11-23 29-37 60-37zM114-30c31 0 40-27 40-66 0-37-7-63-39-63s-41 28-41 65c0 36 8 64 40 64" id="M"/><g id="f"><use transform="matrix(0.05,0,0,0.05,0,0)" xlink:href="#L"/><use transform="matrix(0.05,0,0,0.05,12.950000000000001,0)" xlink:href="#B"/><use transform="matrix(0.05,0,0,0.05,22.950000000000003,0)" xlink:href="#A"/><use transform="matrix(0.05,0,0,0.05,28.900000000000002,0)" xlink:href="#B"/><use transform="matrix(0.05,0,0,0.05,38.900000000000006,0)" xlink:href="#M"/><use transform="matrix(0.05,0,0,0.05,49.85000000000001,0)" xlink:href="#B"/><use transform="matrix(0.05,0,0,0.05,59.85,0)" xlink:href="#w"/><use transform="matrix(0.05,0,0,0.05,69.85000000000001,0)" xlink:href="#v"/></g><path d="M24 0v-248h52v208h133V0H24" id="N"/><g id="g"><use transform="matrix(0.05,0,0,0.05,0,0)" xlink:href="#N"/><use transform="matrix(0.05,0,0,0.05,10.950000000000001,0)" xlink:href="#t"/><use transform="matrix(0.05,0,0,0.05,21.900000000000002,0)" xlink:href="#F"/></g><path d="M238-95c0 69-44 99-111 99C63 4 22-25 22-93v-155h51v151c-1 38 19 59 55 60 90 1 49-130 58-211h52v153" id="O"/><g id="h"><use transform="matrix(0.05,0,0,0.05,0,0)" xlink:href="#O"/><use transform="matrix(0.05,0,0,0.05,12.950000000000001,0)" xlink:href="#w"/><use transform="matrix(0.05,0,0,0.05,22.950000000000003,0)" xlink:href="#v"/><use transform="matrix(0.05,0,0,0.05,32.95,0)" xlink:href="#x"/><use transform="matrix(0.05,0,0,0.05,39.95,0)" xlink:href="#w"/></g><path d="M76-208v77h127v40H76V0H24v-248h183v40H76" id="P"/><g id="i"><use transform="matrix(0.05,0,0,0.05,0,0)" xlink:href="#P"/><use transform="matrix(0.05,0,0,0.05,10.950000000000001,0)" xlink:href="#x"/><use transform="matrix(0.05,0,0,0.05,17.950000000000003,0)" xlink:href="#t"/><use transform="matrix(0.05,0,0,0.05,28.900000000000006,0)" xlink:href="#E"/><use transform="matrix(0.05,0,0,0.05,39.85000000000001,0)" xlink:href="#A"/><use transform="matrix(0.05,0,0,0.05,45.80000000000001,0)" xlink:href="#v"/><use transform="matrix(0.05,0,0,0.05,55.80000000000001,0)" xlink:href="#E"/><use transform="matrix(0.05,0,0,0.05,66.75000000000001,0)" xlink:href="#u"/></g><g id="j"><use transform="matrix(0.05,0,0,0.05,0,0)" xlink:href="#H"/><use transform="matrix(0.05,0,0,0.05,10.950000000000001,0)" xlink:href="#t"/><use transform="matrix(0.05,0,0,0.05,21.900000000000002,0)" xlink:href="#w"/><use transform="matrix(0.05,0,0,0.05,31.900000000000002,0)" xlink:href="#A"/></g><g id="k"><use transform="matrix(0.05,0,0,0.05,0,0)" xlink:href="#L"/><use transform="matrix(0.05,0,0,0.05,12.950000000000001,0)" xlink:href="#D"/><use transform="matrix(0.05,0,0,0.05,17.950000000000003,0)" xlink:href="#w"/><use transform="matrix(0.05,0,0,0.05,27.950000000000003,0)" xlink:href="#K"/><use transform="matrix(0.05,0,0,0.05,37.95,0)" xlink:href="#t"/><use transform="matrix(0.05,0,0,0.05,48.900000000000006,0)" xlink:href="#y"/><use transform="matrix(0.05,0,0,0.05,58.900000000000006,0)" xlink:href="#v"/><use transform="matrix(0.05,0,0,0.05,68.9,0)" xlink:href="#x"/></g><g id="l"><use transform="matrix(0.05,0,0,0.05,0,0)" xlink:href="#z"/><use transform="matrix(0.05,0,0,0.05,12,0)" xlink:href="#A"/><use transform="matrix(0.05,0,0,0.05,17.95,0)" xlink:href="#x"/><use transform="matrix(0.05,0,0,0.05,24.95,0)" xlink:href="#v"/><use transform="matrix(0.05,0,0,0.05,34.95,0)" xlink:href="#B"/><use transform="matrix(0.05,0,0,0.05,44.95,0)" xlink:href="#C"/></g><path d="M275 0h-61l-44-196L126 0H64L0-248h53L97-49l45-199h58l43 199 44-199h52" id="Q"/><g id="m"><use transform="matrix(0.05,0,0,0.05,0,0)" xlink:href="#Q"/><use transform="matrix(0.05,0,0,0.05,16.3,0)" xlink:href="#B"/><use transform="matrix(0.05,0,0,0.05,26.3,0)" xlink:href="#A"/><use transform="matrix(0.05,0,0,0.05,32.25,0)" xlink:href="#K"/><use transform="matrix(0.05,0,0,0.05,42.25,0)" xlink:href="#H"/></g><path d="M25 0v-261h50V0H25" id="R"/><path d="M123 10C108 53 80 86 19 72V37c35 8 53-11 59-39L3-190h52l48 148c12-52 28-100 44-148h51" id="S"/><g id="n"><use transform="matrix(0.05,0,0,0.05,0,0)" xlink:href="#P"/><use transform="matrix(0.05,0,0,0.05,10.950000000000001,0)" xlink:href="#D"/><use transform="matrix(0.05,0,0,0.05,15.950000000000001,0)" xlink:href="#R"/><use transform="matrix(0.05,0,0,0.05,20.950000000000003,0)" xlink:href="#v"/><use transform="matrix(0.05,0,0,0.05,30.950000000000003,0)" xlink:href="#z"/><use transform="matrix(0.05,0,0,0.05,42.95,0)" xlink:href="#S"/><use transform="matrix(0.05,0,0,0.05,52.95,0)" xlink:href="#w"/><use transform="matrix(0.05,0,0,0.05,62.95,0)" xlink:href="#A"/><use transform="matrix(0.05,0,0,0.05,68.9,0)" xlink:href="#v"/><use transform="matrix(0.05,0,0,0.05,78.9,0)" xlink:href="#C"/></g><path d="M137 0h-34L2-248h35l83 218 83-218h36" id="T"/><path d="M24-231v-30h32v30H24zM24 0v-190h32V0H24" id="U"/><path d="M85-194c31 0 48 13 60 33l-1-100h32l1 261h-30c-2-10 0-23-3-31C134-8 116 4 85 4 32 4 16-35 15-94c0-66 23-100 70-100zm9 24c-40 0-46 34-46 75 0 40 6 74 45 74 42 0 51-32 51-76 0-42-9-74-50-73" id="V"/><path d="M100-194c63 0 86 42 84 106H49c0 40 14 67 53 68 26 1 43-12 49-29l28 8c-11 28-37 45-77 45C44 4 14-33 15-96c1-61 26-98 85-98zm52 81c6-60-76-77-97-28-3 7-6 17-6 28h103" id="W"/><path d="M100-194c62-1 85 37 85 99 1 63-27 99-86 99S16-35 15-95c0-66 28-99 85-99zM99-20c44 1 53-31 53-75 0-43-8-75-51-75s-53 32-53 75 10 74 51 75" id="X"/><g id="o"><use transform="matrix(0.05,0,0,0.05,0,0)" xlink:href="#T"/><use transform="matrix(0.05,0,0,0.05,11.65,0)" xlink:href="#U"/><use transform="matrix(0.05,0,0,0.05,15.600000000000001,0)" xlink:href="#V"/><use transform="matrix(0.05,0,0,0.05,25.6,0)" xlink:href="#W"/><use transform="matrix(0.05,0,0,0.05,35.6,0)" xlink:href="#X"/></g><path d="M59-47c-2 24 18 29 38 22v24C64 9 27 4 27-40v-127H5v-23h24l9-43h21v43h35v23H59v120" id="Y"/><path d="M96-169c-40 0-48 33-48 73s9 75 48 75c24 0 41-14 43-38l32 2c-6 37-31 61-74 61-59 0-76-41-82-99-10-93 101-131 147-64 4 7 5 14 7 22l-32 3c-4-21-16-35-41-35" id="Z"/><path d="M115-194c55 1 70 41 70 98S169 2 115 4C84 4 66-9 55-30l1 105H24l-1-265h31l2 30c10-21 28-34 59-34zm-8 174c40 0 45-34 45-75s-6-73-45-74c-42 0-51 32-51 76 0 43 10 73 51 73" id="aa"/><path d="M0 4l72-265h28L28 4H0" id="ab"/><g id="p"><use transform="matrix(0.05,0,0,0.05,0,0)" xlink:href="#Y"/><use transform="matrix(0.05,0,0,0.05,5,0)" xlink:href="#Z"/><use transform="matrix(0.05,0,0,0.05,14,0)" xlink:href="#aa"/><use transform="matrix(0.05,0,0,0.05,24,0)" xlink:href="#ab"/><use transform="matrix(0.05,0,0,0.05,29,0)" xlink:href="#U"/><use transform="matrix(0.05,0,0,0.05,32.95,0)" xlink:href="#aa"/></g><g id="q"><use transform="matrix(0.05,0,0,0.05,0,0)" xlink:href="#N"/><use transform="matrix(0.05,0,0,0.05,10.950000000000001,0)" xlink:href="#t"/><use transform="matrix(0.05,0,0,0.05,21.900000000000002,0)" xlink:href="#F"/><use transform="matrix(0.05,0,0,0.05,32.85,0)" xlink:href="#D"/><use transform="matrix(0.05,0,0,0.05,37.85,0)" xlink:href="#E"/><use transform="matrix(0.05,0,0,0.05,48.800000000000004,0)" xlink:href="#F"/></g><path d="M135-194c53 0 70 44 70 98 0 56-19 98-73 100-31 1-45-17-59-34 3 33 2 69 2 105H25l-1-265h48c2 10 0 23 3 31 11-24 29-35 60-35zM114-30c33 0 39-31 40-66 0-38-9-64-40-64-56 0-55 130 0 130" id="ac"/><g id="r"><use transform="matrix(0.05,0,0,0.05,0,0)" xlink:href="#I"/><use transform="matrix(0.05,0,0,0.05,12.950000000000001,0)" xlink:href="#ac"/><use transform="matrix(0.05,0,0,0.05,23.900000000000002,0)" xlink:href="#ac"/></g></defs></g></svg>