<svg xmlns="http://www.w3.org/2000/svg" xmlns:xlink="http://www.w3.org/1999/xlink" xmlns:lucid="lucid" width="1760" height="1360"><g transform="translate(0 0)" lucid:page-tab-id="0_0"><path d="M80 85c0-2.76 2.24-5 5-5h470c2.76 0 5 2.24 5 5v126c0 2.76-2.24 5-5 5H85c-2.76 0-5-2.24-5-5z" fill="#fff"/><path d="M80 152h480v32H80z" fill="#e6e6e6"/><path d="M80 80h480v40H80z" fill="#ccc"/><path d="M80 85c0-2.76 2.24-5 5-5h470c2.76 0 5 2.24 5 5v126c0 2.76-2.24 5-5 5H85c-2.76 0-5-2.24-5-5zM80 120h480M140 120v96M350 120v96" stroke="#666" fill="none"/><use xlink:href="#a" transform="matrix(1,0,0,1,90,80) translate(211.28395061728395 23.555555555555557)"/><use xlink:href="#b" transform="matrix(1,0,0,1,85,122.5) translate(6 17.1)"/><use xlink:href="#c" transform="matrix(1,0,0,1,145,122.5) translate(0 17.1)"/><use xlink:href="#d" transform="matrix(1,0,0,1,355,122.5) translate(0 17.1)"/><use xlink:href="#e" transform="matrix(1,0,0,1,145,154.5) translate(0 17.1)"/><use xlink:href="#d" transform="matrix(1,0,0,1,355,154.5) translate(0 17.1)"/><use xlink:href="#f" transform="matrix(1,0,0,1,145,186.5) translate(0 17.1)"/><use xlink:href="#g" transform="matrix(1,0,0,1,355,186.5) translate(0 17.1)"/><path d="M800 85c0-2.76 2.24-5 5-5h470c2.76 0 5 2.24 5 5v190c0 2.76-2.24 5-5 5H805c-2.76 0-5-2.24-5-5z" fill="#fff"/><path d="M800 152h480v32H800zM800 216h480v32H800z" fill="#e6e6e6"/><path d="M800 80h480v40H800z" fill="#ccc"/><path d="M800 85c0-2.76 2.24-5 5-5h470c2.76 0 5 2.24 5 5v190c0 2.76-2.24 5-5 5H805c-2.76 0-5-2.24-5-5zM800 120h480M860 120v160M1070 120v160" stroke="#666" fill="none"/><use xlink:href="#h" transform="matrix(1,0,0,1,810,80) translate(215.1851851851852 23.555555555555557)"/><use xlink:href="#i" transform="matrix(1,0,0,1,805,122.5) translate(15.5 17.1)"/><use xlink:href="#j" transform="matrix(1,0,0,1,865,122.5) translate(0 17.1)"/><use xlink:href="#k" transform="matrix(1,0,0,1,1075,122.5) translate(0 17.1)"/><use xlink:href="#l" transform="matrix(1,0,0,1,805,154.5) translate(18 17.1)"/><use xlink:href="#m" transform="matrix(1,0,0,1,865,154.5) translate(0 17.1)"/><use xlink:href="#d" transform="matrix(1,0,0,1,1075,154.5) translate(0 17.1)"/><use xlink:href="#n" transform="matrix(1,0,0,1,865,186.5) translate(0 17.1)"/><use xlink:href="#o" transform="matrix(1,0,0,1,1075,186.5) translate(0 17.1)"/><use xlink:href="#p" transform="matrix(1,0,0,1,865,218.5) translate(0 17.1)"/><use xlink:href="#d" transform="matrix(1,0,0,1,1075,218.5) translate(0 17.1)"/><use xlink:href="#q" transform="matrix(1,0,0,1,865,250.5) translate(0 17.1)"/><use xlink:href="#r" transform="matrix(1,0,0,1,1075,250.5) translate(0 17.1)"/><path d="M800 325c0-2.76 2.24-5 5-5h670c2.76 0 5 2.24 5 5v630c0 2.76-2.24 5-5 5H805c-2.76 0-5-2.24-5-5z" stroke="#666" fill="#e5e5e5"/><path d="M1020 285c0-2.76 2.24-5 5-5h230c2.76 0 5 2.24 5 5v50c0 2.76-2.24 5-5 5h-230c-2.76 0-5-2.24-5-5z" stroke="#000" stroke-opacity="0" fill="#fff" fill-opacity="0"/><use xlink:href="#s" transform="matrix(1,0,0,1,1025,285) translate(45.419753086419746 28.555555555555557)"/><use xlink:href="#t" transform="matrix(1,0,0,1,1025,285) translate(150.01234567901236 28.555555555555557)"/><path d="M840 685c0-2.76 2.24-5 5-5h230c2.76 0 5 2.24 5 5v230c0 2.76-2.24 5-5 5H845c-2.76 0-5-2.24-5-5z" stroke="#666" fill="#fff"/><path d="M840 717h240M840 856h240" stroke="#666" fill="none"/><use xlink:href="#u" transform="matrix(1,0,0,1,848,680) translate(74.5185185185185 22.555555555555557)"/><use xlink:href="#v" transform="matrix(1,0,0,1,852,725.3333333333334) translate(55.728395061728385 43.72222222222222)"/><use xlink:href="#w" transform="matrix(1,0,0,1,852,725.3333333333334) translate(47.827160493827144 65.05555555555556)"/><use xlink:href="#x" transform="matrix(1,0,0,1,852,725.3333333333334) translate(58.69135802469135 86.3888888888889)"/><path d="M1200 365c0-2.76 2.24-5 5-5h230c2.76 0 5 2.24 5 5v230c0 2.76-2.24 5-5 5h-230c-2.76 0-5-2.24-5-5z" stroke="#666" fill="#fff"/><path d="M1200 397h240m-240 139h240" stroke="#666" fill="none"/><use xlink:href="#y" transform="matrix(1,0,0,1,1208,360) translate(93.25925925925925 22.555555555555557)"/><use xlink:href="#z" transform="matrix(1,0,0,1,1212,405.3333333333333) translate(67.06172839506172 43.72222222222222)"/><use xlink:href="#A" transform="matrix(1,0,0,1,1212,405.3333333333333) translate(39.925925925925924 65.05555555555556)"/><use xlink:href="#B" transform="matrix(1,0,0,1,1212,405.3333333333333) translate(23.703703703703695 86.3888888888889)"/><path d="M840 365c0-2.76 2.24-5 5-5h230c2.76 0 5 2.24 5 5v230c0 2.76-2.24 5-5 5H845c-2.76 0-5-2.24-5-5z" stroke="#666" fill="#fff"/><path d="M840 419h240" stroke="#666" fill="none"/><use xlink:href="#C" transform="matrix(1,0,0,1,848,360) translate(53.574999999999996 22.799999999999997)"/><use xlink:href="#D" transform="matrix(1,0,0,1,848,360) translate(90.05 44.4)"/><use xlink:href="#E" transform="matrix(1,0,0,1,852,427.2) translate(63.38271604938271 86.05555555555556)"/><use xlink:href="#F" transform="matrix(1,0,0,1,852,427.2) translate(78.69135802469135 86.05555555555556)"/><path d="M1200 695c0-2.76 2.24-5 5-5h230c2.76 0 5 2.24 5 5v220c0 2.76-2.24 5-5 5h-230c-2.76 0-5-2.24-5-5z" stroke="#666" fill="#fff"/><path d="M1200 727h240m-240 118h240" stroke="#666" fill="none"/><use xlink:href="#G" transform="matrix(1,0,0,1,1208,690) translate(67.11111111111111 22.555555555555557)"/><use xlink:href="#H" transform="matrix(1,0,0,1,1212,735.3333333333334) translate(44.88888888888888 43.888888888888886)"/><use xlink:href="#x" transform="matrix(1,0,0,1,1212,735.3333333333334) translate(58.69135802469135 65.22222222222223)"/><path d="M960.5 679h-1v-51.6h1zm0-72.92h-1V601h1zM960.5 601h-1v-.5h1zM960.5 679.5h-1v-.5h1z" fill="#666"/><path d="M960.5 639.92l.9 2.72 2.22 1.63 1.42.23h350.04l3.18 1.04 1.96 2.68.28 1.74V689h-1v-38.96l-.23-1.42-1.63-2.23-2.72-.9H964.96l-1.74-.28-2.68-1.96-1.04-3.18V627.4h1zm0-33.84h-1V601h1zM960.5 601h-1v-.5h1zM1320.5 689.5h-1v-.5h1z" fill="#666"/><use xlink:href="#I" transform="matrix(1,0,0,1,914.1481481481482,606.07886969565) translate(0.005000000000002558 14.222222222222223)"/><path d="M1119.78 480.5H1081v-1h38.78zm79.22 0h-38.78v-1H1199zM1199.5 480.5h-.5v-1h.5zM1081 480.5h-.5v-1h.5z" fill="#666"/><use xlink:href="#J" transform="matrix(1,0,0,1,1119.7777777777778,469.3333333333333) translate(0.004999999999999005 14.222222222222223)"/><path d="M580.5 136H705c2.76 0 5 2.24 5 5v22c0 2.76 2.24 5 5 5h65.1" stroke="#666" fill="none"/><path d="M580.5 146v-20M560.5 136h20M799.28 178l-20-10 20-10M799.28 168h-20" stroke="#666" fill="#fff"/><path d="M80 325c0-2.76 2.24-5 5-5h470c2.76 0 5 2.24 5 5v222c0 2.76-2.24 5-5 5H85c-2.76 0-5-2.24-5-5z" fill="#fff"/><path d="M80 392h480v32H80zM80 456h480v32H80zM80 520h480v32H80z" fill="#e6e6e6"/><path d="M80 320h480v40H80z" fill="#ccc"/><path d="M80 325c0-2.76 2.24-5 5-5h470c2.76 0 5 2.24 5 5v222c0 2.76-2.24 5-5 5H85c-2.76 0-5-2.24-5-5zM80 360h480M140 360v192M350 360v192" stroke="#666" fill="none"/><use xlink:href="#K" transform="matrix(1,0,0,1,90,320) translate(211.25925925925927 23.555555555555557)"/><use xlink:href="#i" transform="matrix(1,0,0,1,85,362.5) translate(15.5 17.1)"/><use xlink:href="#j" transform="matrix(1,0,0,1,145,362.5) translate(0 17.1)"/><use xlink:href="#k" transform="matrix(1,0,0,1,355,362.5) translate(0 17.1)"/><use xlink:href="#l" transform="matrix(1,0,0,1,85,394.5) translate(18 17.1)"/><use xlink:href="#L" transform="matrix(1,0,0,1,145,394.5) translate(0 17.1)"/><use xlink:href="#d" transform="matrix(1,0,0,1,355,394.5) translate(0 17.1)"/><use xlink:href="#l" transform="matrix(1,0,0,1,85,426.5) translate(18 17.1)"/><use xlink:href="#M" transform="matrix(1,0,0,1,145,426.5) translate(0 17.1)"/><use xlink:href="#d" transform="matrix(1,0,0,1,355,426.5) translate(0 17.1)"/><use xlink:href="#N" transform="matrix(1,0,0,1,145,458.5) translate(0 17.1)"/><use xlink:href="#d" transform="matrix(1,0,0,1,355,458.5) translate(0 17.1)"/><use xlink:href="#p" transform="matrix(1,0,0,1,145,490.5) translate(0 17.1)"/><use xlink:href="#d" transform="matrix(1,0,0,1,355,490.5) translate(0 17.1)"/><use xlink:href="#q" transform="matrix(1,0,0,1,145,522.5) translate(0 17.1)"/><use xlink:href="#r" transform="matrix(1,0,0,1,355,522.5) translate(0 17.1)"/><path d="M600 440h85c2.76 0 5-2.24 5-5V173.04c0-2.76-2.24-5-5-5H580.5" stroke="#666" fill="none"/><path d="M560.72 430l20 10-20 10M560.72 440h20M600.72 440c0 5.52-4.47 10-10 10-5.52 0-10-4.48-10-10s4.48-10 10-10c5.53 0 10 4.48 10 10M580.5 178.04v-20M560.5 168.04h20" stroke="#666" fill="#fff"/><path d="M580.5 200.1H655c2.76 0 5 2.25 5 5V403c0 2.76-2.24 5-5 5h-55" stroke="#666" fill="none"/><path d="M580.5 210.1v-20M560.5 200.1h20M560.72 398l20 10-20 10M560.72 408h20M600.72 408c0 5.52-4.47 10-10 10-5.52 0-10-4.48-10-10s4.48-10 10-10c5.53 0 10 4.48 10 10" stroke="#666" fill="#fff"/><path d="M1281 200.04h54c2.76 0 5 2.24 5 5V319.5" fill="none"/><path d="M1281 200.04h1.47m1.97 0h2.94m1.97 0h2.94m1.95 0h2.95m1.96 0h2.95m1.97 0h2.95m1.96 0h2.95m1.96 0h2.94m1.96 0h2.95m1.96 0h2.95m1.97 0h2.94m1.97 0h1.47l1.1.36m1.48.48l.37.13 1.14 1.56m.7 1.33l.2 1.14v1.5m0 2v2.97m0 2v3m0 1.98v2.98m0 2v2.98m0 2v2.98m0 2v2.97m0 1.98v3m0 1.98v3m0 1.98v2.98m0 2v2.98m0 2v2.98m0 2v2.97m0 2v2.98m0 2v2.97m0 2v2.98m0 2v2.98m0 2v2.97m0 2v2.98m0 2v3m0 1.98v2.98m0 2v2.98m0 2V316m0 2v1.48" stroke="#666" fill="none"/><path d="M1281 200.54h-.5v-1h.5z" fill="#666"/><path d="M1340 319.5v.5" stroke="#666" fill="none"/><defs><path d="M232-93c-1 65-40 97-104 97C67 4 28-28 28-90v-158h33c8 89-33 224 67 224 102 0 64-133 71-224h33v155" id="O"/><path d="M135-143c-3-34-86-38-87 0 15 53 115 12 119 90S17 21 10-45l28-5c4 36 97 45 98 0-10-56-113-15-118-90-4-57 82-63 122-42 12 7 21 19 24 35" id="P"/><path d="M100-194c63 0 86 42 84 106H49c0 40 14 67 53 68 26 1 43-12 49-29l28 8c-11 28-37 45-77 45C44 4 14-33 15-96c1-61 26-98 85-98zm52 81c6-60-76-77-97-28-3 7-6 17-6 28h103" id="Q"/><path d="M114-163C36-179 61-72 57 0H25l-1-190h30c1 12-1 29 2 39 6-27 23-49 58-41v29" id="R"/><g id="a"><use transform="matrix(0.04938271604938272,0,0,0.04938271604938272,0,0)" xlink:href="#O"/><use transform="matrix(0.04938271604938272,0,0,0.04938271604938272,12.790123456790125,0)" xlink:href="#P"/><use transform="matrix(0.04938271604938272,0,0,0.04938271604938272,21.679012345679013,0)" xlink:href="#Q"/><use transform="matrix(0.04938271604938272,0,0,0.04938271604938272,31.555555555555557,0)" xlink:href="#R"/></g><path d="M115-194c55 1 70 41 70 98S169 2 115 4C84 4 66-9 55-30l1 105H24l-1-265h31l2 30c10-21 28-34 59-34zm-8 174c40 0 45-34 45-75s-6-73-45-74c-42 0-51 32-51 76 0 43 10 73 51 73" id="S"/><path d="M143 0L79-87 56-68V0H24v-261h32v163l83-92h37l-77 82L181 0h-38" id="T"/><path d="M0 4l72-265h28L28 4H0" id="U"/><path d="M101-234c-31-9-42 10-38 44h38v23H63V0H32v-167H5v-23h27c-7-52 17-82 69-68v24" id="V"/><g id="b"><use transform="matrix(0.05,0,0,0.05,0,0)" xlink:href="#S"/><use transform="matrix(0.05,0,0,0.05,10,0)" xlink:href="#T"/><use transform="matrix(0.05,0,0,0.05,19,0)" xlink:href="#U"/><use transform="matrix(0.05,0,0,0.05,24,0)" xlink:href="#V"/><use transform="matrix(0.05,0,0,0.05,29,0)" xlink:href="#T"/></g><path d="M96-169c-40 0-48 33-48 73s9 75 48 75c24 0 41-14 43-38l32 2c-6 37-31 61-74 61-59 0-76-41-82-99-10-93 101-131 147-64 4 7 5 14 7 22l-32 3c-4-21-16-35-41-35" id="W"/><path d="M59-47c-2 24 18 29 38 22v24C64 9 27 4 27-40v-127H5v-23h24l9-43h21v43h35v23H59v120" id="X"/><path d="M24-231v-30h32v30H24zM24 0v-190h32V0H24" id="Y"/><path d="M141-36C126-15 110 5 73 4 37 3 15-17 15-53c-1-64 63-63 125-63 3-35-9-54-41-54-24 1-41 7-42 31l-33-3c5-37 33-52 76-52 45 0 72 20 72 64v82c-1 20 7 32 28 27v20c-31 9-61-2-59-35zM48-53c0 20 12 33 32 33 41-3 63-29 60-74-43 2-92-5-92 41" id="Z"/><g id="c"><use transform="matrix(0.05,0,0,0.05,0,0)" xlink:href="#W"/><use transform="matrix(0.05,0,0,0.05,9,0)" xlink:href="#Q"/><use transform="matrix(0.05,0,0,0.05,19,0)" xlink:href="#R"/><use transform="matrix(0.05,0,0,0.05,24.95,0)" xlink:href="#X"/><use transform="matrix(0.05,0,0,0.05,29.950000000000003,0)" xlink:href="#Y"/><use transform="matrix(0.05,0,0,0.05,33.9,0)" xlink:href="#V"/><use transform="matrix(0.05,0,0,0.05,38.9,0)" xlink:href="#Y"/><use transform="matrix(0.05,0,0,0.05,42.85,0)" xlink:href="#W"/><use transform="matrix(0.05,0,0,0.05,51.85,0)" xlink:href="#Z"/><use transform="matrix(0.05,0,0,0.05,61.85,0)" xlink:href="#X"/><use transform="matrix(0.05,0,0,0.05,66.85,0)" xlink:href="#Q"/></g><path d="M117-194c89-4 53 116 60 194h-32v-121c0-31-8-49-39-48C34-167 62-67 57 0H25l-1-190h30c1 10-1 24 2 32 11-22 29-35 61-36" id="aa"/><path d="M177-190C167-65 218 103 67 71c-23-6-38-20-44-43l32-5c15 47 100 32 89-28v-30C133-14 115 1 83 1 29 1 15-40 15-95c0-56 16-97 71-98 29-1 48 16 59 35 1-10 0-23 2-32h30zM94-22c36 0 50-32 50-73 0-42-14-75-50-75-39 0-46 34-46 75s6 73 46 73" id="ab"/><g id="d"><use transform="matrix(0.05,0,0,0.05,0,0)" xlink:href="#P"/><use transform="matrix(0.05,0,0,0.05,9,0)" xlink:href="#X"/><use transform="matrix(0.05,0,0,0.05,14,0)" xlink:href="#R"/><use transform="matrix(0.05,0,0,0.05,19.95,0)" xlink:href="#Y"/><use transform="matrix(0.05,0,0,0.05,23.9,0)" xlink:href="#aa"/><use transform="matrix(0.05,0,0,0.05,33.9,0)" xlink:href="#ab"/></g><path d="M210-169c-67 3-38 105-44 169h-31v-121c0-29-5-50-35-48C34-165 62-65 56 0H25l-1-190h30c1 10-1 24 2 32 10-44 99-50 107 0 11-21 27-35 58-36 85-2 47 119 55 194h-31v-121c0-29-5-49-35-48" id="ac"/><g id="e"><use transform="matrix(0.05,0,0,0.05,0,0)" xlink:href="#aa"/><use transform="matrix(0.05,0,0,0.05,10,0)" xlink:href="#Z"/><use transform="matrix(0.05,0,0,0.05,20,0)" xlink:href="#ac"/><use transform="matrix(0.05,0,0,0.05,34.95,0)" xlink:href="#Q"/></g><path d="M115-194c53 0 69 39 70 98 0 66-23 100-70 100C84 3 66-7 56-30L54 0H23l1-261h32v101c10-23 28-34 59-34zm-8 174c40 0 45-34 45-75 0-40-5-75-45-74-42 0-51 32-51 76 0 43 10 73 51 73" id="ad"/><path d="M24 0v-261h32V0H24" id="ae"/><g id="f"><use transform="matrix(0.05,0,0,0.05,0,0)" xlink:href="#ad"/><use transform="matrix(0.05,0,0,0.05,10,0)" xlink:href="#Z"/><use transform="matrix(0.05,0,0,0.05,20,0)" xlink:href="#ae"/><use transform="matrix(0.05,0,0,0.05,23.95,0)" xlink:href="#Z"/><use transform="matrix(0.05,0,0,0.05,33.95,0)" xlink:href="#aa"/><use transform="matrix(0.05,0,0,0.05,43.95,0)" xlink:href="#W"/><use transform="matrix(0.05,0,0,0.05,52.95,0)" xlink:href="#Q"/></g><path d="M85-194c31 0 48 13 60 33l-1-100h32l1 261h-30c-2-10 0-23-3-31C134-8 116 4 85 4 32 4 16-35 15-94c0-66 23-100 70-100zm9 24c-40 0-46 34-46 75 0 40 6 74 45 74 42 0 51-32 51-76 0-42-9-74-50-73" id="af"/><path d="M100-194c62-1 85 37 85 99 1 63-27 99-86 99S16-35 15-95c0-66 28-99 85-99zM99-20c44 1 53-31 53-75 0-43-8-75-51-75s-53 32-53 75 10 74 51 75" id="ag"/><path d="M84 4C-5 8 30-112 23-190h32v120c0 31 7 50 39 49 72-2 45-101 50-169h31l1 190h-30c-1-10 1-25-2-33-11 22-28 36-60 37" id="ah"/><g id="g"><use transform="matrix(0.05,0,0,0.05,0,0)" xlink:href="#af"/><use transform="matrix(0.05,0,0,0.05,10,0)" xlink:href="#ag"/><use transform="matrix(0.05,0,0,0.05,20,0)" xlink:href="#ah"/><use transform="matrix(0.05,0,0,0.05,30,0)" xlink:href="#ad"/><use transform="matrix(0.05,0,0,0.05,40,0)" xlink:href="#ae"/><use transform="matrix(0.05,0,0,0.05,43.95,0)" xlink:href="#Q"/></g><path d="M30 0v-248h33v221h125V0H30" id="ai"/><g id="h"><use transform="matrix(0.04938271604938272,0,0,0.04938271604938272,0,0)" xlink:href="#ai"/><use transform="matrix(0.04938271604938272,0,0,0.04938271604938272,9.876543209876544,0)" xlink:href="#ag"/><use transform="matrix(0.04938271604938272,0,0,0.04938271604938272,19.75308641975309,0)" xlink:href="#ab"/></g><g id="i"><use transform="matrix(0.05,0,0,0.05,0,0)" xlink:href="#S"/><use transform="matrix(0.05,0,0,0.05,10,0)" xlink:href="#T"/></g><g id="j"><use transform="matrix(0.05,0,0,0.05,0,0)" xlink:href="#Y"/><use transform="matrix(0.05,0,0,0.05,3.95,0)" xlink:href="#af"/></g><g id="k"><use transform="matrix(0.05,0,0,0.05,0,0)" xlink:href="#Y"/><use transform="matrix(0.05,0,0,0.05,3.95,0)" xlink:href="#aa"/><use transform="matrix(0.05,0,0,0.05,13.949999999999998,0)" xlink:href="#X"/></g><g id="l"><use transform="matrix(0.05,0,0,0.05,0,0)" xlink:href="#V"/><use transform="matrix(0.05,0,0,0.05,5,0)" xlink:href="#T"/></g><path d="M185-189c-5-48-123-54-124 2 14 75 158 14 163 119 3 78-121 87-175 55-17-10-28-26-33-46l33-7c5 56 141 63 141-1 0-78-155-14-162-118-5-82 145-84 179-34 5 7 8 16 11 25" id="aj"/><g id="m"><use transform="matrix(0.05,0,0,0.05,0,0)" xlink:href="#W"/><use transform="matrix(0.05,0,0,0.05,9,0)" xlink:href="#Q"/><use transform="matrix(0.05,0,0,0.05,19,0)" xlink:href="#R"/><use transform="matrix(0.05,0,0,0.05,24.95,0)" xlink:href="#X"/><use transform="matrix(0.05,0,0,0.05,29.950000000000003,0)" xlink:href="#Y"/><use transform="matrix(0.05,0,0,0.05,33.9,0)" xlink:href="#V"/><use transform="matrix(0.05,0,0,0.05,38.9,0)" xlink:href="#Y"/><use transform="matrix(0.05,0,0,0.05,42.85,0)" xlink:href="#W"/><use transform="matrix(0.05,0,0,0.05,51.85,0)" xlink:href="#Z"/><use transform="matrix(0.05,0,0,0.05,61.85,0)" xlink:href="#X"/><use transform="matrix(0.05,0,0,0.05,66.85,0)" xlink:href="#Q"/><use transform="matrix(0.05,0,0,0.05,76.85,0)" xlink:href="#aj"/><use transform="matrix(0.05,0,0,0.05,88.85,0)" xlink:href="#Q"/><use transform="matrix(0.05,0,0,0.05,98.85,0)" xlink:href="#aa"/><use transform="matrix(0.05,0,0,0.05,108.84999999999998,0)" xlink:href="#af"/><use transform="matrix(0.05,0,0,0.05,118.84999999999998,0)" xlink:href="#Q"/><use transform="matrix(0.05,0,0,0.05,128.85,0)" xlink:href="#R"/></g><g id="n"><use transform="matrix(0.05,0,0,0.05,0,0)" xlink:href="#af"/><use transform="matrix(0.05,0,0,0.05,10,0)" xlink:href="#Z"/><use transform="matrix(0.05,0,0,0.05,20,0)" xlink:href="#X"/><use transform="matrix(0.05,0,0,0.05,25,0)" xlink:href="#Z"/></g><path d="M24-231v-30h32v30H24zM-9 49c24 4 33-6 33-30v-209h32V24c2 40-23 58-65 49V49" id="ak"/><g id="o"><use transform="matrix(0.05,0,0,0.05,0,0)" xlink:href="#ag"/><use transform="matrix(0.05,0,0,0.05,10,0)" xlink:href="#ad"/><use transform="matrix(0.05,0,0,0.05,20,0)" xlink:href="#ak"/><use transform="matrix(0.05,0,0,0.05,23.95,0)" xlink:href="#Q"/><use transform="matrix(0.05,0,0,0.05,33.95,0)" xlink:href="#W"/><use transform="matrix(0.05,0,0,0.05,42.95,0)" xlink:href="#X"/></g><path d="M179-190L93 31C79 59 56 82 12 73V49c39 6 53-20 64-50L1-190h34L92-34l54-156h33" id="al"/><path d="M197 0v-115H63V0H30v-248h33v105h134v-105h34V0h-34" id="am"/><path d="M106-169C34-169 62-67 57 0H25v-261h32l-1 103c12-21 28-36 61-36 89 0 53 116 60 194h-32v-121c2-32-8-49-39-48" id="an"/><g id="p"><use transform="matrix(0.05,0,0,0.05,0,0)" xlink:href="#Q"/><use transform="matrix(0.05,0,0,0.05,10,0)" xlink:href="#aa"/><use transform="matrix(0.05,0,0,0.05,20,0)" xlink:href="#W"/><use transform="matrix(0.05,0,0,0.05,29,0)" xlink:href="#R"/><use transform="matrix(0.05,0,0,0.05,34.95,0)" xlink:href="#al"/><use transform="matrix(0.05,0,0,0.05,43.95,0)" xlink:href="#S"/><use transform="matrix(0.05,0,0,0.05,53.95,0)" xlink:href="#X"/><use transform="matrix(0.05,0,0,0.05,58.95,0)" xlink:href="#Q"/><use transform="matrix(0.05,0,0,0.05,68.95,0)" xlink:href="#af"/><use transform="matrix(0.05,0,0,0.05,78.95,0)" xlink:href="#am"/><use transform="matrix(0.05,0,0,0.05,91.9,0)" xlink:href="#Z"/><use transform="matrix(0.05,0,0,0.05,101.9,0)" xlink:href="#P"/><use transform="matrix(0.05,0,0,0.05,110.9,0)" xlink:href="#an"/></g><g id="q"><use transform="matrix(0.05,0,0,0.05,0,0)" xlink:href="#X"/><use transform="matrix(0.05,0,0,0.05,5,0)" xlink:href="#Y"/><use transform="matrix(0.05,0,0,0.05,8.95,0)" xlink:href="#ac"/><use transform="matrix(0.05,0,0,0.05,23.9,0)" xlink:href="#Q"/><use transform="matrix(0.05,0,0,0.05,33.9,0)" xlink:href="#P"/><use transform="matrix(0.05,0,0,0.05,42.9,0)" xlink:href="#X"/><use transform="matrix(0.05,0,0,0.05,47.9,0)" xlink:href="#Z"/><use transform="matrix(0.05,0,0,0.05,57.900000000000006,0)" xlink:href="#ac"/><use transform="matrix(0.05,0,0,0.05,72.85,0)" xlink:href="#S"/></g><path d="M127-220V0H93v-220H8v-28h204v28h-85" id="ao"/><path d="M87 75C49 33 22-17 22-94c0-76 28-126 65-167h31c-38 41-64 92-64 168S80 34 118 75H87" id="ap"/><path d="M103-251c84 0 111 97 45 133-19 10-37 24-39 52H78c0-63 77-55 77-114 0-30-21-42-52-43-32 0-53 17-56 46l-32-2c7-45 34-72 88-72zM77 0v-35h34V0H77" id="aq"/><path d="M33-261c38 41 65 92 65 168S71 34 33 75H2C39 34 66-17 66-93S39-220 2-261h31" id="ar"/><g id="r"><use transform="matrix(0.05,0,0,0.05,0,0)" xlink:href="#af"/><use transform="matrix(0.05,0,0,0.05,10,0)" xlink:href="#Z"/><use transform="matrix(0.05,0,0,0.05,20,0)" xlink:href="#X"/><use transform="matrix(0.05,0,0,0.05,25,0)" xlink:href="#Q"/><use transform="matrix(0.05,0,0,0.05,35,0)" xlink:href="#ao"/><use transform="matrix(0.05,0,0,0.05,45.300000000000004,0)" xlink:href="#Y"/><use transform="matrix(0.05,0,0,0.05,49.25000000000001,0)" xlink:href="#ac"/><use transform="matrix(0.05,0,0,0.05,64.2,0)" xlink:href="#Q"/><use transform="matrix(0.05,0,0,0.05,74.2,0)" xlink:href="#ap"/><use transform="matrix(0.05,0,0,0.05,80.15,0)" xlink:href="#aq"/><use transform="matrix(0.05,0,0,0.05,90.15,0)" xlink:href="#ar"/></g><path d="M137 0h-34L2-248h35l83 218 83-218h36" id="as"/><g id="s"><use transform="matrix(0.04938271604938272,0,0,0.04938271604938272,0,0)" xlink:href="#as"/><use transform="matrix(0.04938271604938272,0,0,0.04938271604938272,10.864197530864198,0)" xlink:href="#ag"/><use transform="matrix(0.04938271604938272,0,0,0.04938271604938272,20.74074074074074,0)" xlink:href="#ag"/><use transform="matrix(0.04938271604938272,0,0,0.04938271604938272,30.617283950617285,0)" xlink:href="#R"/><use transform="matrix(0.04938271604938272,0,0,0.04938271604938272,36.49382716049383,0)" xlink:href="#ad"/><use transform="matrix(0.04938271604938272,0,0,0.04938271604938272,46.370370370370374,0)" xlink:href="#Q"/><use transform="matrix(0.04938271604938272,0,0,0.04938271604938272,56.24691358024692,0)" xlink:href="#Q"/><use transform="matrix(0.04938271604938272,0,0,0.04938271604938272,66.12345679012347,0)" xlink:href="#ae"/><use transform="matrix(0.04938271604938272,0,0,0.04938271604938272,70.02469135802471,0)" xlink:href="#af"/><use transform="matrix(0.04938271604938272,0,0,0.04938271604938272,79.90123456790126,0)" xlink:href="#Q"/><use transform="matrix(0.04938271604938272,0,0,0.04938271604938272,89.7777777777778,0)" xlink:href="#aa"/></g><g id="t"><use transform="matrix(0.04938271604938272,0,0,0.04938271604938272,0,0)" xlink:href="#af"/><use transform="matrix(0.04938271604938272,0,0,0.04938271604938272,9.876543209876544,0)" xlink:href="#Z"/><use transform="matrix(0.04938271604938272,0,0,0.04938271604938272,19.75308641975309,0)" xlink:href="#X"/><use transform="matrix(0.04938271604938272,0,0,0.04938271604938272,24.69135802469136,0)" xlink:href="#Z"/></g><path d="M212-179c-10-28-35-45-73-45-59 0-87 40-87 99 0 60 29 101 89 101 43 0 62-24 78-52l27 14C228-24 195 4 139 4 59 4 22-46 18-125c-6-104 99-153 187-111 19 9 31 26 39 46" id="at"/><path d="M30-248c118-7 216 8 213 122C240-48 200 0 122 0H30v-248zM63-27c89 8 146-16 146-99s-60-101-146-95v194" id="au"/><g id="u"><use transform="matrix(0.04938271604938272,0,0,0.04938271604938272,0,0)" xlink:href="#at"/><use transform="matrix(0.04938271604938272,0,0,0.04938271604938272,12.790123456790125,0)" xlink:href="#an"/><use transform="matrix(0.04938271604938272,0,0,0.04938271604938272,22.66666666666667,0)" xlink:href="#Z"/><use transform="matrix(0.04938271604938272,0,0,0.04938271604938272,32.543209876543216,0)" xlink:href="#X"/><use transform="matrix(0.04938271604938272,0,0,0.04938271604938272,37.48148148148149,0)" xlink:href="#au"/><use transform="matrix(0.04938271604938272,0,0,0.04938271604938272,50.271604938271615,0)" xlink:href="#Z"/><use transform="matrix(0.04938271604938272,0,0,0.04938271604938272,60.14814814814817,0)" xlink:href="#X"/><use transform="matrix(0.04938271604938272,0,0,0.04938271604938272,65.08641975308643,0)" xlink:href="#Z"/></g><path d="M33-154v-36h34v36H33zM33 0v-36h34V0H33" id="av"/><g id="v"><use transform="matrix(0.04938271604938272,0,0,0.04938271604938272,0,0)" xlink:href="#P"/><use transform="matrix(0.04938271604938272,0,0,0.04938271604938272,8.88888888888889,0)" xlink:href="#ah"/><use transform="matrix(0.04938271604938272,0,0,0.04938271604938272,18.765432098765434,0)" xlink:href="#ad"/><use transform="matrix(0.04938271604938272,0,0,0.04938271604938272,28.641975308641978,0)" xlink:href="#ak"/><use transform="matrix(0.04938271604938272,0,0,0.04938271604938272,32.543209876543216,0)" xlink:href="#Q"/><use transform="matrix(0.04938271604938272,0,0,0.04938271604938272,42.41975308641976,0)" xlink:href="#W"/><use transform="matrix(0.04938271604938272,0,0,0.04938271604938272,51.308641975308646,0)" xlink:href="#X"/><use transform="matrix(0.04938271604938272,0,0,0.04938271604938272,56.24691358024692,0)" xlink:href="#av"/><use transform="matrix(0.04938271604938272,0,0,0.04938271604938272,61.18518518518519,0)" xlink:href="#P"/><use transform="matrix(0.04938271604938272,0,0,0.04938271604938272,70.07407407407408,0)" xlink:href="#X"/><use transform="matrix(0.04938271604938272,0,0,0.04938271604938272,75.01234567901236,0)" xlink:href="#R"/><use transform="matrix(0.04938271604938272,0,0,0.04938271604938272,80.8888888888889,0)" xlink:href="#Y"/><use transform="matrix(0.04938271604938272,0,0,0.04938271604938272,84.79012345679014,0)" xlink:href="#aa"/><use transform="matrix(0.04938271604938272,0,0,0.04938271604938272,94.66666666666669,0)" xlink:href="#ab"/></g><g id="w"><use transform="matrix(0.04938271604938272,0,0,0.04938271604938272,0,0)" xlink:href="#ac"/><use transform="matrix(0.04938271604938272,0,0,0.04938271604938272,14.765432098765434,0)" xlink:href="#Q"/><use transform="matrix(0.04938271604938272,0,0,0.04938271604938272,24.641975308641978,0)" xlink:href="#P"/><use transform="matrix(0.04938271604938272,0,0,0.04938271604938272,33.53086419753087,0)" xlink:href="#P"/><use transform="matrix(0.04938271604938272,0,0,0.04938271604938272,42.41975308641976,0)" xlink:href="#Z"/><use transform="matrix(0.04938271604938272,0,0,0.04938271604938272,52.2962962962963,0)" xlink:href="#ab"/><use transform="matrix(0.04938271604938272,0,0,0.04938271604938272,62.17283950617284,0)" xlink:href="#Q"/><use transform="matrix(0.04938271604938272,0,0,0.04938271604938272,72.0493827160494,0)" xlink:href="#av"/><use transform="matrix(0.04938271604938272,0,0,0.04938271604938272,76.98765432098767,0)" xlink:href="#P"/><use transform="matrix(0.04938271604938272,0,0,0.04938271604938272,85.87654320987656,0)" xlink:href="#X"/><use transform="matrix(0.04938271604938272,0,0,0.04938271604938272,90.81481481481484,0)" xlink:href="#R"/><use transform="matrix(0.04938271604938272,0,0,0.04938271604938272,96.69135802469138,0)" xlink:href="#Y"/><use transform="matrix(0.04938271604938272,0,0,0.04938271604938272,100.59259259259262,0)" xlink:href="#aa"/><use transform="matrix(0.04938271604938272,0,0,0.04938271604938272,110.46913580246917,0)" xlink:href="#ab"/></g><g id="x"><use transform="matrix(0.04938271604938272,0,0,0.04938271604938272,0,0)" xlink:href="#Z"/><use transform="matrix(0.04938271604938272,0,0,0.04938271604938272,9.876543209876544,0)" xlink:href="#ah"/><use transform="matrix(0.04938271604938272,0,0,0.04938271604938272,19.75308641975309,0)" xlink:href="#X"/><use transform="matrix(0.04938271604938272,0,0,0.04938271604938272,24.69135802469136,0)" xlink:href="#an"/><use transform="matrix(0.04938271604938272,0,0,0.04938271604938272,34.567901234567906,0)" xlink:href="#ag"/><use transform="matrix(0.04938271604938272,0,0,0.04938271604938272,44.44444444444445,0)" xlink:href="#R"/><use transform="matrix(0.04938271604938272,0,0,0.04938271604938272,50.320987654320994,0)" xlink:href="#av"/><use transform="matrix(0.04938271604938272,0,0,0.04938271604938272,55.25925925925927,0)" xlink:href="#P"/><use transform="matrix(0.04938271604938272,0,0,0.04938271604938272,64.14814814814815,0)" xlink:href="#X"/><use transform="matrix(0.04938271604938272,0,0,0.04938271604938272,69.08641975308643,0)" xlink:href="#R"/><use transform="matrix(0.04938271604938272,0,0,0.04938271604938272,74.96296296296298,0)" xlink:href="#Y"/><use transform="matrix(0.04938271604938272,0,0,0.04938271604938272,78.86419753086422,0)" xlink:href="#aa"/><use transform="matrix(0.04938271604938272,0,0,0.04938271604938272,88.74074074074076,0)" xlink:href="#ab"/></g><g id="y"><use transform="matrix(0.04938271604938272,0,0,0.04938271604938272,0,0)" xlink:href="#au"/><use transform="matrix(0.04938271604938272,0,0,0.04938271604938272,12.790123456790125,0)" xlink:href="#Z"/><use transform="matrix(0.04938271604938272,0,0,0.04938271604938272,22.66666666666667,0)" xlink:href="#X"/><use transform="matrix(0.04938271604938272,0,0,0.04938271604938272,27.604938271604947,0)" xlink:href="#Z"/></g><g id="z"><use transform="matrix(0.04938271604938272,0,0,0.04938271604938272,0,0)" xlink:href="#X"/><use transform="matrix(0.04938271604938272,0,0,0.04938271604938272,4.938271604938272,0)" xlink:href="#al"/><use transform="matrix(0.04938271604938272,0,0,0.04938271604938272,13.827160493827162,0)" xlink:href="#S"/><use transform="matrix(0.04938271604938272,0,0,0.04938271604938272,23.703703703703706,0)" xlink:href="#Q"/><use transform="matrix(0.04938271604938272,0,0,0.04938271604938272,33.580246913580254,0)" xlink:href="#av"/><use transform="matrix(0.04938271604938272,0,0,0.04938271604938272,38.518518518518526,0)" xlink:href="#P"/><use transform="matrix(0.04938271604938272,0,0,0.04938271604938272,47.40740740740742,0)" xlink:href="#X"/><use transform="matrix(0.04938271604938272,0,0,0.04938271604938272,52.34567901234569,0)" xlink:href="#R"/><use transform="matrix(0.04938271604938272,0,0,0.04938271604938272,58.222222222222236,0)" xlink:href="#Y"/><use transform="matrix(0.04938271604938272,0,0,0.04938271604938272,62.12345679012347,0)" xlink:href="#aa"/><use transform="matrix(0.04938271604938272,0,0,0.04938271604938272,72.00000000000001,0)" xlink:href="#ab"/></g><path d="M140-251c81 0 123 46 123 126C263-46 219 4 140 4 59 4 17-45 17-125s42-126 123-126zm0 227c63 0 89-41 89-101s-29-99-89-99c-61 0-89 39-89 99S79-25 140-24" id="aw"/><path d="M33 0v-248h34V0H33" id="ax"/><g id="A"><use transform="matrix(0.04938271604938272,0,0,0.04938271604938272,0,0)" xlink:href="#au"/><use transform="matrix(0.04938271604938272,0,0,0.04938271604938272,12.790123456790125,0)" xlink:href="#Z"/><use transform="matrix(0.04938271604938272,0,0,0.04938271604938272,22.66666666666667,0)" xlink:href="#X"/><use transform="matrix(0.04938271604938272,0,0,0.04938271604938272,27.604938271604947,0)" xlink:href="#Z"/><use transform="matrix(0.04938271604938272,0,0,0.04938271604938272,37.48148148148149,0)" xlink:href="#aw"/><use transform="matrix(0.04938271604938272,0,0,0.04938271604938272,51.308641975308646,0)" xlink:href="#ad"/><use transform="matrix(0.04938271604938272,0,0,0.04938271604938272,61.18518518518519,0)" xlink:href="#ak"/><use transform="matrix(0.04938271604938272,0,0,0.04938271604938272,65.08641975308643,0)" xlink:href="#Q"/><use transform="matrix(0.04938271604938272,0,0,0.04938271604938272,74.96296296296298,0)" xlink:href="#W"/><use transform="matrix(0.04938271604938272,0,0,0.04938271604938272,83.85185185185186,0)" xlink:href="#X"/><use transform="matrix(0.04938271604938272,0,0,0.04938271604938272,88.79012345679013,0)" xlink:href="#av"/><use transform="matrix(0.04938271604938272,0,0,0.04938271604938272,93.7283950617284,0)" xlink:href="#ax"/><use transform="matrix(0.04938271604938272,0,0,0.04938271604938272,98.66666666666669,0)" xlink:href="#au"/><use transform="matrix(0.04938271604938272,0,0,0.04938271604938272,111.45679012345683,0)" xlink:href="#Z"/><use transform="matrix(0.04938271604938272,0,0,0.04938271604938272,121.33333333333337,0)" xlink:href="#X"/><use transform="matrix(0.04938271604938272,0,0,0.04938271604938272,126.27160493827162,0)" xlink:href="#Z"/></g><g id="B"><use transform="matrix(0.04938271604938272,0,0,0.04938271604938272,0,0)" xlink:href="#X"/><use transform="matrix(0.04938271604938272,0,0,0.04938271604938272,4.938271604938272,0)" xlink:href="#Y"/><use transform="matrix(0.04938271604938272,0,0,0.04938271604938272,8.839506172839506,0)" xlink:href="#ac"/><use transform="matrix(0.04938271604938272,0,0,0.04938271604938272,23.60493827160494,0)" xlink:href="#Q"/><use transform="matrix(0.04938271604938272,0,0,0.04938271604938272,33.48148148148148,0)" xlink:href="#P"/><use transform="matrix(0.04938271604938272,0,0,0.04938271604938272,42.37037037037037,0)" xlink:href="#X"/><use transform="matrix(0.04938271604938272,0,0,0.04938271604938272,47.30864197530864,0)" xlink:href="#Z"/><use transform="matrix(0.04938271604938272,0,0,0.04938271604938272,57.185185185185176,0)" xlink:href="#ac"/><use transform="matrix(0.04938271604938272,0,0,0.04938271604938272,71.95061728395062,0)" xlink:href="#S"/><use transform="matrix(0.04938271604938272,0,0,0.04938271604938272,81.82716049382717,0)" xlink:href="#av"/><use transform="matrix(0.04938271604938272,0,0,0.04938271604938272,86.76543209876544,0)" xlink:href="#X"/><use transform="matrix(0.04938271604938272,0,0,0.04938271604938272,91.70370370370372,0)" xlink:href="#Y"/><use transform="matrix(0.04938271604938272,0,0,0.04938271604938272,95.60493827160496,0)" xlink:href="#ac"/><use transform="matrix(0.04938271604938272,0,0,0.04938271604938272,110.3703703703704,0)" xlink:href="#Q"/><use transform="matrix(0.04938271604938272,0,0,0.04938271604938272,120.24691358024694,0)" xlink:href="#P"/><use transform="matrix(0.04938271604938272,0,0,0.04938271604938272,129.13580246913583,0)" xlink:href="#X"/><use transform="matrix(0.04938271604938272,0,0,0.04938271604938272,134.0740740740741,0)" xlink:href="#Z"/><use transform="matrix(0.04938271604938272,0,0,0.04938271604938272,143.95061728395063,0)" xlink:href="#ac"/><use transform="matrix(0.04938271604938272,0,0,0.04938271604938272,158.71604938271608,0)" xlink:href="#S"/></g><path d="M15-91v-56l181-69v40L49-119l147 57v40" id="ay"/><path d="M25-224v-37h50v37H25zM25 0v-190h50V0H25" id="az"/><path d="M135-194c87-1 58 113 63 194h-50c-7-57 23-157-34-157-59 0-34 97-39 157H25l-1-190h47c2 12-1 28 3 38 12-26 28-41 61-42" id="aA"/><path d="M115-3C79 11 28 4 28-45v-112H4v-33h27l15-45h31v45h36v33H77v99c-1 23 16 31 38 25v30" id="aB"/><path d="M185-48c-13 30-37 53-82 52C43 2 14-33 14-96s30-98 90-98c62 0 83 45 84 108H66c0 31 8 55 39 56 18 0 30-7 34-22zm-45-69c5-46-57-63-70-21-2 6-4 13-4 21h74" id="aC"/><path d="M135-150c-39-12-60 13-60 57V0H25l-1-190h47c2 13-1 29 3 40 6-28 27-53 61-41v41" id="aD"/><path d="M121-226c-27-7-43 5-38 36h38v33H83V0H34v-157H6v-33h28c-9-59 32-81 87-68v32" id="aE"/><path d="M133-34C117-15 103 5 69 4 32 3 11-16 11-54c-1-60 55-63 116-61 1-26-3-47-28-47-18 1-26 9-28 27l-52-2c7-38 36-58 82-57s74 22 75 68l1 82c-1 14 12 18 25 15v27c-30 8-71 5-69-32zm-48 3c29 0 43-24 42-57-32 0-66-3-65 30 0 17 8 27 23 27" id="aF"/><path d="M190-63c-7 42-38 67-86 67-59 0-84-38-90-98-12-110 154-137 174-36l-49 2c-2-19-15-32-35-32-30 0-35 28-38 64-6 74 65 87 74 30" id="aG"/><path d="M15-22v-40l146-57-146-57v-40l181 69v56" id="aH"/><g id="C"><use transform="matrix(0.05,0,0,0.05,0,0)" xlink:href="#ay"/><use transform="matrix(0.05,0,0,0.05,10.5,0)" xlink:href="#ay"/><use transform="matrix(0.05,0,0,0.05,21,0)" xlink:href="#az"/><use transform="matrix(0.05,0,0,0.05,26,0)" xlink:href="#aA"/><use transform="matrix(0.05,0,0,0.05,36.95,0)" xlink:href="#aB"/><use transform="matrix(0.05,0,0,0.05,42.900000000000006,0)" xlink:href="#aC"/><use transform="matrix(0.05,0,0,0.05,52.900000000000006,0)" xlink:href="#aD"/><use transform="matrix(0.05,0,0,0.05,59.900000000000006,0)" xlink:href="#aE"/><use transform="matrix(0.05,0,0,0.05,65.85000000000001,0)" xlink:href="#aF"/><use transform="matrix(0.05,0,0,0.05,75.85000000000001,0)" xlink:href="#aG"/><use transform="matrix(0.05,0,0,0.05,85.85000000000001,0)" xlink:href="#aC"/><use transform="matrix(0.05,0,0,0.05,95.85000000000001,0)" xlink:href="#aH"/><use transform="matrix(0.05,0,0,0.05,106.35000000000001,0)" xlink:href="#aH"/></g><path d="M24 0v-248h52V0H24" id="aI"/><path d="M24-248c120-7 223 5 221 122C244-46 201 0 124 0H24v-248zM76-40c74 7 117-18 117-86 0-67-45-88-117-82v168" id="aJ"/><g id="D"><use transform="matrix(0.05,0,0,0.05,0,0)" xlink:href="#aI"/><use transform="matrix(0.05,0,0,0.05,5,0)" xlink:href="#aJ"/><use transform="matrix(0.05,0,0,0.05,17.950000000000003,0)" xlink:href="#aF"/><use transform="matrix(0.05,0,0,0.05,27.950000000000003,0)" xlink:href="#aB"/><use transform="matrix(0.05,0,0,0.05,33.900000000000006,0)" xlink:href="#aF"/></g><path d="M118-107v75H92v-75H18v-26h74v-75h26v75h74v26h-74" id="aK"/><use transform="matrix(0.04938271604938272,0,0,0.04938271604938272,0,0)" xlink:href="#aK" id="E"/><g id="F"><use transform="matrix(0.04938271604938272,0,0,0.04938271604938272,0,0)" xlink:href="#ab"/><use transform="matrix(0.04938271604938272,0,0,0.04938271604938272,9.876543209876544,0)" xlink:href="#Q"/><use transform="matrix(0.04938271604938272,0,0,0.04938271604938272,19.75308641975309,0)" xlink:href="#X"/><use transform="matrix(0.04938271604938272,0,0,0.04938271604938272,24.69135802469136,0)" xlink:href="#au"/><use transform="matrix(0.04938271604938272,0,0,0.04938271604938272,37.48148148148149,0)" xlink:href="#Z"/><use transform="matrix(0.04938271604938272,0,0,0.04938271604938272,47.35802469135803,0)" xlink:href="#X"/><use transform="matrix(0.04938271604938272,0,0,0.04938271604938272,52.2962962962963,0)" xlink:href="#Z"/><use transform="matrix(0.04938271604938272,0,0,0.04938271604938272,62.17283950617284,0)" xlink:href="#ap"/><use transform="matrix(0.04938271604938272,0,0,0.04938271604938272,68.0493827160494,0)" xlink:href="#ar"/></g><g id="G"><use transform="matrix(0.04938271604938272,0,0,0.04938271604938272,0,0)" xlink:href="#au"/><use transform="matrix(0.04938271604938272,0,0,0.04938271604938272,12.790123456790125,0)" xlink:href="#Q"/><use transform="matrix(0.04938271604938272,0,0,0.04938271604938272,22.66666666666667,0)" xlink:href="#ad"/><use transform="matrix(0.04938271604938272,0,0,0.04938271604938272,32.543209876543216,0)" xlink:href="#ah"/><use transform="matrix(0.04938271604938272,0,0,0.04938271604938272,42.41975308641976,0)" xlink:href="#ab"/><use transform="matrix(0.04938271604938272,0,0,0.04938271604938272,52.2962962962963,0)" xlink:href="#au"/><use transform="matrix(0.04938271604938272,0,0,0.04938271604938272,65.08641975308643,0)" xlink:href="#Z"/><use transform="matrix(0.04938271604938272,0,0,0.04938271604938272,74.96296296296298,0)" xlink:href="#X"/><use transform="matrix(0.04938271604938272,0,0,0.04938271604938272,79.90123456790124,0)" xlink:href="#Z"/></g><g id="H"><use transform="matrix(0.04938271604938272,0,0,0.04938271604938272,0,0)" xlink:href="#W"/><use transform="matrix(0.04938271604938272,0,0,0.04938271604938272,8.88888888888889,0)" xlink:href="#ag"/><use transform="matrix(0.04938271604938272,0,0,0.04938271604938272,18.765432098765434,0)" xlink:href="#ac"/><use transform="matrix(0.04938271604938272,0,0,0.04938271604938272,33.53086419753087,0)" xlink:href="#ac"/><use transform="matrix(0.04938271604938272,0,0,0.04938271604938272,48.296296296296305,0)" xlink:href="#Z"/><use transform="matrix(0.04938271604938272,0,0,0.04938271604938272,58.17283950617284,0)" xlink:href="#aa"/><use transform="matrix(0.04938271604938272,0,0,0.04938271604938272,68.0493827160494,0)" xlink:href="#af"/><use transform="matrix(0.04938271604938272,0,0,0.04938271604938272,77.92592592592594,0)" xlink:href="#av"/><use transform="matrix(0.04938271604938272,0,0,0.04938271604938272,82.8641975308642,0)" xlink:href="#P"/><use transform="matrix(0.04938271604938272,0,0,0.04938271604938272,91.75308641975309,0)" xlink:href="#X"/><use transform="matrix(0.04938271604938272,0,0,0.04938271604938272,96.69135802469137,0)" xlink:href="#R"/><use transform="matrix(0.04938271604938272,0,0,0.04938271604938272,102.56790123456791,0)" xlink:href="#Y"/><use transform="matrix(0.04938271604938272,0,0,0.04938271604938272,106.46913580246914,0)" xlink:href="#aa"/><use transform="matrix(0.04938271604938272,0,0,0.04938271604938272,116.34567901234568,0)" xlink:href="#ab"/></g><g id="I"><use transform="matrix(0.04938271604938272,0,0,0.04938271604938272,0,0)" xlink:href="#ax"/><use transform="matrix(0.04938271604938272,0,0,0.04938271604938272,4.938271604938272,0)" xlink:href="#ac"/><use transform="matrix(0.04938271604938272,0,0,0.04938271604938272,19.703703703703706,0)" xlink:href="#S"/><use transform="matrix(0.04938271604938272,0,0,0.04938271604938272,29.58024691358025,0)" xlink:href="#ae"/><use transform="matrix(0.04938271604938272,0,0,0.04938271604938272,33.48148148148149,0)" xlink:href="#Q"/><use transform="matrix(0.04938271604938272,0,0,0.04938271604938272,43.35802469135803,0)" xlink:href="#ac"/><use transform="matrix(0.04938271604938272,0,0,0.04938271604938272,58.12345679012347,0)" xlink:href="#Q"/><use transform="matrix(0.04938271604938272,0,0,0.04938271604938272,68.00000000000001,0)" xlink:href="#aa"/><use transform="matrix(0.04938271604938272,0,0,0.04938271604938272,77.87654320987656,0)" xlink:href="#X"/><use transform="matrix(0.04938271604938272,0,0,0.04938271604938272,82.81481481481484,0)" xlink:href="#P"/></g><g id="J"><use transform="matrix(0.04938271604938272,0,0,0.04938271604938272,0,0)" xlink:href="#O"/><use transform="matrix(0.04938271604938272,0,0,0.04938271604938272,12.790123456790125,0)" xlink:href="#P"/><use transform="matrix(0.04938271604938272,0,0,0.04938271604938272,21.679012345679013,0)" xlink:href="#Q"/><use transform="matrix(0.04938271604938272,0,0,0.04938271604938272,31.555555555555557,0)" xlink:href="#P"/></g><g id="K"><use transform="matrix(0.04938271604938272,0,0,0.04938271604938272,0,0)" xlink:href="#at"/><use transform="matrix(0.04938271604938272,0,0,0.04938271604938272,12.790123456790125,0)" xlink:href="#an"/><use transform="matrix(0.04938271604938272,0,0,0.04938271604938272,22.66666666666667,0)" xlink:href="#Z"/><use transform="matrix(0.04938271604938272,0,0,0.04938271604938272,32.543209876543216,0)" xlink:href="#X"/></g><g id="L"><use transform="matrix(0.05,0,0,0.05,0,0)" xlink:href="#W"/><use transform="matrix(0.05,0,0,0.05,9,0)" xlink:href="#Q"/><use transform="matrix(0.05,0,0,0.05,19,0)" xlink:href="#R"/><use transform="matrix(0.05,0,0,0.05,24.95,0)" xlink:href="#X"/><use transform="matrix(0.05,0,0,0.05,29.950000000000003,0)" xlink:href="#Y"/><use transform="matrix(0.05,0,0,0.05,33.9,0)" xlink:href="#V"/><use transform="matrix(0.05,0,0,0.05,38.9,0)" xlink:href="#Y"/><use transform="matrix(0.05,0,0,0.05,42.85,0)" xlink:href="#W"/><use transform="matrix(0.05,0,0,0.05,51.85,0)" xlink:href="#Z"/><use transform="matrix(0.05,0,0,0.05,61.85,0)" xlink:href="#X"/><use transform="matrix(0.05,0,0,0.05,66.85,0)" xlink:href="#Q"/><use transform="matrix(0.05,0,0,0.05,76.85,0)" xlink:href="#aj"/><use transform="matrix(0.05,0,0,0.05,88.85,0)" xlink:href="#X"/><use transform="matrix(0.05,0,0,0.05,93.85,0)" xlink:href="#R"/><use transform="matrix(0.05,0,0,0.05,99.8,0)" xlink:href="#Q"/><use transform="matrix(0.05,0,0,0.05,109.80000000000001,0)" xlink:href="#Z"/><use transform="matrix(0.05,0,0,0.05,119.80000000000001,0)" xlink:href="#ac"/><use transform="matrix(0.05,0,0,0.05,134.75,0)" xlink:href="#Q"/><use transform="matrix(0.05,0,0,0.05,144.75,0)" xlink:href="#R"/></g><path d="M205 0l-28-72H64L36 0H1l101-248h38L239 0h-34zm-38-99l-47-123c-12 45-31 82-46 123h93" id="aL"/><g id="M"><use transform="matrix(0.05,0,0,0.05,0,0)" xlink:href="#W"/><use transform="matrix(0.05,0,0,0.05,9,0)" xlink:href="#Q"/><use transform="matrix(0.05,0,0,0.05,19,0)" xlink:href="#R"/><use transform="matrix(0.05,0,0,0.05,24.95,0)" xlink:href="#X"/><use transform="matrix(0.05,0,0,0.05,29.950000000000003,0)" xlink:href="#Y"/><use transform="matrix(0.05,0,0,0.05,33.9,0)" xlink:href="#V"/><use transform="matrix(0.05,0,0,0.05,38.9,0)" xlink:href="#Y"/><use transform="matrix(0.05,0,0,0.05,42.85,0)" xlink:href="#W"/><use transform="matrix(0.05,0,0,0.05,51.85,0)" xlink:href="#Z"/><use transform="matrix(0.05,0,0,0.05,61.85,0)" xlink:href="#X"/><use transform="matrix(0.05,0,0,0.05,66.85,0)" xlink:href="#Q"/><use transform="matrix(0.05,0,0,0.05,76.85,0)" xlink:href="#aL"/><use transform="matrix(0.05,0,0,0.05,88.85,0)" xlink:href="#ah"/><use transform="matrix(0.05,0,0,0.05,98.85,0)" xlink:href="#X"/><use transform="matrix(0.05,0,0,0.05,103.84999999999998,0)" xlink:href="#an"/><use transform="matrix(0.05,0,0,0.05,113.84999999999998,0)" xlink:href="#ag"/><use transform="matrix(0.05,0,0,0.05,123.84999999999998,0)" xlink:href="#R"/></g><g id="N"><use transform="matrix(0.05,0,0,0.05,0,0)" xlink:href="#ac"/><use transform="matrix(0.05,0,0,0.05,14.950000000000001,0)" xlink:href="#Q"/><use transform="matrix(0.05,0,0,0.05,24.950000000000003,0)" xlink:href="#P"/><use transform="matrix(0.05,0,0,0.05,33.95,0)" xlink:href="#P"/><use transform="matrix(0.05,0,0,0.05,42.95,0)" xlink:href="#Z"/><use transform="matrix(0.05,0,0,0.05,52.95,0)" xlink:href="#ab"/><use transform="matrix(0.05,0,0,0.05,62.95,0)" xlink:href="#Q"/></g></defs></g></svg>